<svg width="2000" height="500" viewBox="0 0 2000 500" fill="none" xmlns="http://www.w3.org/2000/svg">
<path fill-rule="evenodd" clip-rule="evenodd" d="M1338.27 173.414C1340 172.112 1341.96 171.57 1344.13 171.787C1346.51 172.004 1348.47 172.98 1349.99 174.716C1351.5 176.453 1352.16 178.514 1351.94 180.902C1351.72 183.072 1350.85 184.917 1349.33 186.436L1331.43 203.039C1328.61 206.295 1327.09 210.094 1326.87 214.435C1326.87 217.907 1328.5 221.272 1331.75 224.527C1335.23 227.565 1340.11 231.255 1346.4 235.595C1353.13 239.502 1358.88 244.494 1363.66 250.571C1367.35 255.78 1369.41 261.64 1369.84 268.151C1370.49 274.445 1369.3 280.413 1366.26 286.056C1365.39 287.792 1365.5 289.42 1366.59 290.939C1367.89 292.459 1369.52 293.001 1371.47 292.567C1413.12 282.581 1449.67 263.024 1481.12 233.9C1481.75 233.294 1482.37 232.71 1482.99 232.149C1483.04 232.104 1483.09 232.059 1483.14 232.014C1483.65 231.43 1484.21 230.946 1484.82 230.559C1491.94 224.584 1498.71 221.596 1505.14 221.596H1505.46C1507.85 221.596 1509.8 222.464 1511.32 224.2C1513.06 225.936 1513.92 227.999 1513.92 230.386C1513.92 232.557 1513.06 234.51 1511.32 236.246C1509.58 237.765 1507.52 238.525 1505.14 238.525C1501.66 238.525 1496.78 241.998 1490.48 248.943C1484.19 255.671 1479.96 262.942 1477.79 270.755C1476.05 275.53 1476.16 280.304 1478.11 285.079C1480.07 289.637 1483.32 292.892 1487.88 294.845C1491.79 297.884 1496.13 299.186 1500.9 298.752C1505.68 298.101 1509.58 295.931 1512.62 292.241C1516.96 287.467 1517.83 284.103 1515.23 282.149C1509.15 278.243 1505.35 272.708 1503.83 265.546C1502.31 258.384 1503.51 251.764 1507.41 245.688C1515.88 231.363 1524.34 226.697 1532.81 231.688C1536.93 234.076 1539.64 238.851 1540.95 246.013C1542.25 253.175 1542.14 260.663 1540.62 268.476C1540.19 270.429 1540.62 272.383 1541.92 274.336C1543.23 276.072 1544.85 277.158 1546.81 277.592C1574.15 282.15 1600.96 280.196 1627.22 271.731C1653.48 263.267 1676.38 249.268 1695.91 229.735C1698.08 227.252 1700.22 224.211 1703.51 223.224C1705.68 222.573 1707.74 222.79 1709.7 223.875C1711.87 224.961 1713.28 226.588 1713.93 228.759C1714.8 230.929 1714.69 232.991 1713.6 234.944C1713.17 236.029 1712.41 237.657 1711.32 239.827C1710.46 241.78 1709.15 245.362 1707.42 250.571C1705.9 255.779 1704.92 260.663 1704.49 265.22C1704.05 269.778 1704.49 274.661 1705.79 279.87C1707.31 284.862 1710.02 288.768 1713.93 291.59C1723.48 298.535 1734.11 302.877 1745.83 304.613C1757.55 306.132 1768.73 305.59 1779.37 302.985C1790.22 300.381 1801.29 296.365 1812.57 290.939C1824.07 285.297 1834.06 279.545 1842.52 273.685C1851.2 267.825 1859.45 261.639 1867.26 255.128C1875.29 248.617 1880.94 243.843 1884.19 240.804C1887.45 237.549 1889.62 235.379 1890.7 234.293C1892.44 232.557 1894.39 231.688 1896.56 231.688C1898.95 231.688 1901.01 232.557 1902.75 234.293C1904.49 235.813 1905.35 237.765 1905.35 240.153C1905.35 242.54 1904.59 244.602 1903.08 246.338C1900.47 248.942 1897.11 252.199 1892.98 256.105C1888.86 259.795 1881.26 265.981 1870.19 274.662C1859.34 283.127 1848.49 290.722 1837.64 297.45C1826.79 303.961 1813.98 309.822 1799.22 315.031C1784.47 320.24 1770.57 322.844 1757.55 322.844C1737.59 323.061 1719.68 317.2 1703.84 305.263C1697.76 300.923 1693.42 295.172 1690.81 288.01C1688.21 280.848 1687.02 274.227 1687.23 268.15C1687.34 265.211 1687.65 262.17 1688.16 259.028C1680.42 264.872 1672.26 270.084 1663.68 274.661C1647.62 283.125 1631.88 288.986 1616.47 292.241C1601.06 295.497 1586.41 297.125 1572.52 297.125C1558.85 296.908 1546.59 295.171 1535.74 291.916C1534.22 291.482 1533.02 292.024 1532.16 293.543C1529.33 300.054 1524.99 305.264 1519.13 309.17C1513.49 313.077 1507.09 315.138 1499.93 315.355C1492.76 315.355 1486.14 313.619 1480.07 310.147C1471.82 306.24 1465.96 300.163 1462.49 291.916C1459.77 285.465 1458.98 278.882 1460.11 272.166C1448.5 279.725 1435.67 286.744 1421.61 293.219C1391.44 307.109 1363.22 314.054 1336.96 314.054C1331.32 314.054 1325.89 313.728 1320.69 313.077C1309.83 312.209 1299.85 308.954 1290.73 303.311C1281.62 297.451 1274.35 289.854 1268.92 280.522C1267.84 278.568 1267.62 276.507 1268.27 274.336C1268.71 272.166 1269.9 270.43 1271.85 269.127C1273.81 267.825 1275.87 267.5 1278.04 268.151C1280.43 268.585 1282.27 269.778 1283.57 271.731C1290.74 281.281 1300.07 287.359 1311.57 289.963C1323.29 292.351 1334.36 290.614 1344.78 284.754C1349.33 282.15 1352.05 278.351 1352.92 273.359C1354 268.151 1352.7 263.593 1349.01 259.687C1345.32 255.78 1341.2 252.416 1336.64 249.595C1327.52 244.169 1319.93 237.223 1313.85 228.759C1312.98 227.239 1311.68 226.372 1309.94 226.155C1308.21 225.938 1306.79 226.371 1305.71 227.457L1280.97 250.897C1278.58 253.067 1275.76 253.718 1272.5 252.85C1269.25 251.982 1267.3 249.919 1266.64 246.664C1265.78 243.408 1266.64 240.587 1269.25 238.199L1319.06 191.32C1324.7 184.592 1331.1 178.623 1338.27 173.414ZM1524.34 250.571C1523.47 252.09 1522.71 253.284 1522.06 254.152C1520.76 256.105 1520.22 258.276 1520.44 260.663C1520.65 263.05 1521.74 265.003 1523.69 266.522C1524.56 261.314 1524.78 255.996 1524.34 250.571Z" fill="black"/>
<path d="M1712.95 177.646C1715.34 177.646 1717.4 178.515 1719.14 180.251C1720.87 181.77 1721.74 183.723 1721.74 186.111C1721.96 188.281 1721.2 190.235 1719.46 191.971C1713.39 198.265 1706.55 203.366 1698.95 207.272C1697.65 208.14 1696.24 208.574 1694.72 208.574C1690.38 208.574 1687.67 206.404 1686.58 202.063C1685.5 197.723 1686.91 194.466 1690.81 192.296C1696.89 189.257 1702.32 185.243 1707.09 180.251C1708.83 178.515 1710.78 177.646 1712.95 177.646Z" fill="black"/>
<path fill-rule="evenodd" clip-rule="evenodd" d="M446.376 34.69C450.065 33.6048 453.647 33.7135 457.12 35.0158C460.592 36.101 463.521 38.1637 465.909 41.2021C470.249 46.411 472.528 53.4642 472.745 62.3626C473.179 71.0439 471.987 80.2678 469.165 90.0341C466.561 99.8007 462.545 110.653 457.12 122.59C451.694 134.527 446.051 145.704 440.191 156.122C434.331 166.54 427.819 177.392 420.657 188.678C413.495 199.964 407.418 209.187 402.426 216.349C397.434 223.512 392.551 230.457 387.776 237.185C387.776 237.185 387.559 237.511 387.125 238.161L385.282 240.924C385.213 241.415 385.099 241.885 384.936 242.335C382.043 257.628 380.386 266.438 379.963 268.764C379.746 270.283 380.289 271.368 381.591 272.019C383.11 272.67 384.412 272.454 385.497 271.369C404.379 251.619 421.851 242.394 437.911 243.696C444.205 244.13 449.957 246.084 455.166 249.557C460.592 253.029 464.824 257.587 467.862 263.23C471.552 269.741 476.436 275.167 482.513 279.508C488.59 283.848 495.318 286.561 502.697 287.646C511.813 288.948 522.122 288.081 533.624 285.042C545.344 281.787 555.654 277.88 564.552 273.322C573.451 268.548 582.674 262.904 592.224 256.394C601.773 249.883 608.068 245.325 611.106 242.72L619.245 236.209C620.03 235.522 620.882 235.013 621.8 234.681C624.116 231.162 626.83 227.656 629.943 224.163C638.841 214.18 648.716 206.366 659.568 200.724C670.637 195.081 680.513 192.475 689.194 192.91C695.054 192.91 700.046 194.972 704.169 199.096C708.51 203.219 710.898 208.32 711.332 214.397C712.417 224.815 706.556 234.256 693.752 242.72C675.304 254.223 655.119 259.323 633.198 258.021C632.113 257.804 631.137 258.021 630.269 258.672C629.401 259.323 629.074 260.192 629.291 261.277C627.772 272.345 634.935 281.026 650.779 287.32C664.886 293.18 680.078 296.653 696.355 297.738C712.633 298.607 727.826 297.739 741.933 295.135C756.04 292.53 770.474 288.515 785.233 283.089C799.991 277.663 812.579 272.236 822.996 266.81C833.631 261.167 843.832 255.308 853.599 249.231C865.469 241.748 876.512 234.042 887.059 224.814C899.43 215.482 914.297 209.188 931.66 205.933C949.022 202.46 964.867 203.653 979.191 209.513C990.694 215.156 996.012 222.101 995.144 230.349C994.276 238.813 986.027 246.953 970.401 254.766C967.58 256.068 965.952 258.346 965.518 261.601C965.3 264.857 966.494 267.462 969.099 269.415H969.425C971.161 270.934 973.114 271.586 975.284 271.369C977.671 271.152 979.625 270.174 981.144 268.438C987.655 261.276 993.841 254.874 999.701 249.231C1002.96 246.627 1006.65 245.215 1010.77 244.998C1014.89 244.564 1018.8 245.542 1022.49 247.929C1032.26 254.657 1043 258.455 1054.72 259.323C1066.44 260.191 1076.75 259.323 1085.65 256.718C1094.76 254.114 1103.88 250.316 1112.99 245.324C1122.33 240.333 1128.62 236.643 1131.88 234.256C1135.35 231.651 1137.95 229.589 1139.69 228.069C1141.43 226.55 1143.49 225.9 1145.87 226.117C1148.26 226.334 1150.22 227.311 1151.73 229.047C1153.25 230.783 1153.9 232.845 1153.69 235.232C1153.47 237.619 1152.49 239.573 1150.76 241.092C1149.02 242.612 1146.2 244.782 1142.29 247.603C1138.6 250.425 1131.66 254.657 1121.46 260.299C1111.26 265.725 1101.06 269.958 1090.86 272.997C1080.66 276.035 1068.83 277.229 1055.37 276.578C1041.91 275.71 1029.43 271.911 1017.93 265.183C1014.03 262.578 1010.34 262.905 1006.86 266.16C1000.79 272.237 994.601 278.639 988.307 285.367C986.571 287.754 986.244 290.468 987.33 293.507C991.019 302.622 992.647 312.606 992.213 323.458C991.779 334.309 990.042 345.053 987.004 355.688C983.965 366.322 979.842 376.957 974.634 387.592C969.425 398.227 963.998 407.776 958.355 416.241C952.712 424.705 946.961 432.301 941.102 439.029C925.258 457.043 911.475 466.05 899.755 466.05C898.236 466.05 896.608 465.833 894.872 465.399C890.966 464.53 887.493 462.578 884.454 459.539C881.416 456.718 879.463 453.245 878.595 449.121C874.905 434.797 881.2 412.876 897.477 383.359C913.755 354.059 934.156 324.434 958.681 294.483C960.2 292.53 960.851 290.359 960.634 287.972C960.417 285.368 959.332 283.305 957.379 281.786C946.961 274.841 935.566 270.934 923.195 270.066C921.025 269.849 919.181 268.981 917.662 267.462C916.359 265.943 915.599 264.206 915.382 262.253C915.382 260.083 915.925 258.13 917.01 256.394C918.312 254.657 919.94 253.572 921.893 253.138C935.566 249.883 948.047 245.758 959.332 240.767C970.618 235.775 976.913 231.759 978.215 228.721C976.262 227.202 974.091 225.899 971.704 224.814C961.069 220.473 948.48 219.823 933.939 222.861C919.615 225.683 907.461 230.891 897.477 238.487C883.526 250.695 868.491 260.494 852.623 270.066C838.949 278.096 825.275 285.151 811.602 291.228C798.146 297.304 781.868 302.839 762.769 307.831C743.67 312.822 725.438 315.319 708.075 315.319C685.938 315.536 664.668 311.52 644.267 303.273C637.756 300.669 632.221 297.63 627.664 294.157C623.323 290.468 620.068 286.995 617.897 283.739C615.727 280.267 614.208 276.686 613.34 272.997C612.356 269.456 611.909 266.36 611.996 263.711C608.682 266.046 604.697 268.816 600.038 272.019C589.62 278.964 579.419 284.934 569.436 289.926C559.669 294.7 548.274 298.715 535.252 301.97C522.447 305.226 510.727 306.094 500.092 304.575C490.109 302.839 480.993 299.15 472.745 293.507C464.498 287.647 457.987 280.376 453.212 271.695C449.523 264.967 443.989 261.276 436.609 260.625C433.788 260.408 430.64 260.951 427.168 262.253C423.695 263.555 419.246 265.943 413.82 269.415C408.611 272.671 402.425 278.205 395.263 286.019C388.101 293.615 380.614 303.165 372.801 314.667C370.413 318.14 367.158 319.116 363.034 317.597C358.911 316.078 357.066 313.148 357.5 308.807C358.559 295.385 360.912 278.946 364.558 259.49C342.851 275.02 319.293 287.444 293.884 296.761C261.329 308.698 227.688 314.775 192.962 314.992C176.034 314.992 159.213 313.473 142.502 310.435C132.735 308.698 124.487 306.203 117.759 302.947C111.03 299.475 106.147 295.676 103.109 291.552C99.8535 287.429 97.6832 283.63 96.598 280.158C95.2959 276.468 94.6446 272.779 94.6445 269.09C94.6445 258.238 98.7687 247.06 107.016 235.558C115.046 223.838 124.596 214.07 135.665 206.257C146.951 198.444 157.368 193.561 166.918 191.608C180.157 187.918 192.094 190.197 202.729 198.444C211.627 206.909 216.077 217.326 216.077 229.697C215.86 232.084 214.883 234.146 213.147 235.882C211.628 237.401 209.674 238.161 207.286 238.161C204.899 238.161 202.837 237.294 201.101 235.558C199.582 233.821 198.822 231.759 198.822 229.371C199.039 222.426 196.651 216.458 191.659 211.466C184.931 207.126 177.769 206.149 170.173 208.536C158.236 210.707 145.431 218.629 131.758 232.302C118.302 245.758 111.573 258.021 111.573 269.09C111.791 281.46 123.077 289.708 145.431 293.831C159.321 296.219 173.32 297.521 187.428 297.738C201.752 297.955 214.775 297.304 226.495 295.785C238.431 294.049 250.26 291.661 261.98 288.622C273.7 285.584 284.117 282.22 293.233 278.53C302.348 274.841 311.138 270.825 319.602 266.485C328.284 261.927 335.446 257.911 341.089 254.439C346.949 250.966 352.375 247.386 357.367 243.696C362.18 240.139 365.478 237.69 367.265 236.352C367.369 236.196 367.477 236.039 367.592 235.883L369.871 232.628C375.514 204.847 382.133 177.826 389.73 151.565C395.373 130.946 401.016 113.041 406.659 97.8482C412.301 82.6558 416.967 71.3696 420.657 63.9904C424.563 56.3942 428.47 50.2085 432.377 45.4337C436.5 40.6593 439.322 37.8376 440.841 36.9693C442.577 36.1011 444.422 35.3411 446.376 34.69ZM969.099 317.923C965.192 316.621 961.828 317.597 959.007 320.853C939.256 346.897 923.087 371.857 910.499 395.731C897.911 419.605 892.811 435.991 895.198 444.89C895.415 447.277 896.718 448.578 899.105 448.795C901.058 449.446 904.748 448.036 910.173 444.564C915.599 441.091 921.676 435.448 928.404 427.635C940.992 413.311 951.627 396.815 960.309 378.15C969.207 359.702 974.091 342.557 974.959 326.713C975.176 322.372 973.222 319.442 969.099 317.923ZM688.217 209.838C681.272 209.404 673.133 211.901 663.801 217.327C654.686 222.752 646.981 229.697 640.687 238.161C637.865 242.068 639.058 243.804 644.267 243.37C653.382 242.719 664.995 238.813 679.102 231.651C681.272 230.349 683.116 229.263 684.636 228.395C691.363 223.838 694.511 219.714 694.077 216.025C693.86 213.638 693.318 212.117 692.45 211.466C691.581 210.598 690.17 210.055 688.217 209.838ZM451.259 50.9685C447.135 50.9689 439.864 62.6887 429.447 86.1283C419.246 109.351 410.348 133.008 402.752 157.099C395.373 181.19 392.985 193.995 395.589 195.515C396.674 196.166 398.845 194.32 402.1 189.98C405.355 185.639 409.046 179.78 413.17 172.401C417.293 164.804 421.634 156.231 426.191 146.681C430.966 137.132 435.307 127.473 439.213 117.707C443.337 107.723 446.81 98.1735 449.631 89.058C452.453 79.9425 454.189 72.2379 454.84 65.9439C455.491 59.4328 454.731 54.7662 452.561 51.9447C451.91 51.2938 451.476 50.9685 451.259 50.9685Z" fill="black"/>
<path d="M649.351 425.18V374.78H657.055L688.663 413.588H684.847V374.78H694.135V425.18H686.431L654.823 386.372H658.639V425.18H649.351Z" fill="black"/>
<path d="M591.478 425.9C587.542 425.9 583.918 425.252 580.606 423.956C577.294 422.66 574.414 420.86 571.966 418.556C569.518 416.204 567.622 413.468 566.278 410.348C564.934 407.18 564.262 403.724 564.262 399.98C564.262 396.236 564.934 392.804 566.278 389.684C567.622 386.516 569.518 383.78 571.966 381.476C574.414 379.124 577.294 377.3 580.606 376.004C583.918 374.708 587.518 374.06 591.406 374.06C595.342 374.06 598.942 374.708 602.206 376.004C605.518 377.3 608.398 379.124 610.846 381.476C613.294 383.78 615.19 386.516 616.534 389.684C617.878 392.804 618.55 396.236 618.55 399.98C618.55 403.724 617.878 407.18 616.534 410.348C615.19 413.516 613.294 416.252 610.846 418.556C608.398 420.86 605.518 422.66 602.206 423.956C598.942 425.252 595.366 425.9 591.478 425.9ZM591.406 417.692C593.95 417.692 596.302 417.26 598.462 416.396C600.622 415.532 602.494 414.308 604.078 412.724C605.662 411.092 606.886 409.22 607.75 407.108C608.662 404.948 609.118 402.572 609.118 399.98C609.118 397.388 608.662 395.036 607.75 392.924C606.886 390.764 605.662 388.892 604.078 387.308C602.494 385.676 600.622 384.428 598.462 383.564C596.302 382.7 593.95 382.268 591.406 382.268C588.862 382.268 586.51 382.7 584.35 383.564C582.238 384.428 580.366 385.676 578.734 387.308C577.15 388.892 575.902 390.764 574.99 392.924C574.126 395.036 573.694 397.388 573.694 399.98C573.694 402.524 574.126 404.876 574.99 407.036C575.902 409.196 577.15 411.092 578.734 412.724C580.318 414.308 582.19 415.532 584.35 416.396C586.51 417.26 588.862 417.692 591.406 417.692Z" fill="black"/>
<path d="M523.989 425.18V374.78H533.349V425.18H523.989Z" fill="black"/>
<path d="M470.02 425.18V382.7H453.316V374.78H496.084V382.7H479.38V425.18H470.02Z" fill="black"/>
<path d="M380.391 425.18L403.071 374.78H412.287L435.039 425.18H425.247L405.735 379.748H409.479L390.039 425.18H380.391ZM390.831 413.516L393.351 406.172H420.567L423.087 413.516H390.831Z" fill="black"/>
<path d="M338.708 425.9C334.868 425.9 331.292 425.276 327.98 424.028C324.716 422.732 321.86 420.932 319.412 418.628C317.012 416.276 315.14 413.516 313.796 410.348C312.452 407.18 311.78 403.724 311.78 399.98C311.78 396.236 312.452 392.78 313.796 389.612C315.14 386.444 317.036 383.708 319.484 381.404C321.932 379.052 324.788 377.252 328.052 376.004C331.316 374.708 334.892 374.06 338.78 374.06C342.908 374.06 346.676 374.78 350.084 376.22C353.492 377.612 356.372 379.7 358.724 382.484L352.676 388.172C350.852 386.204 348.812 384.74 346.556 383.78C344.3 382.772 341.852 382.268 339.212 382.268C336.572 382.268 334.148 382.7 331.94 383.564C329.78 384.428 327.884 385.652 326.252 387.236C324.668 388.82 323.42 390.692 322.508 392.852C321.644 395.012 321.212 397.388 321.212 399.98C321.212 402.572 321.644 404.948 322.508 407.108C323.42 409.268 324.668 411.14 326.252 412.724C327.884 414.308 329.78 415.532 331.94 416.396C334.148 417.26 336.572 417.692 339.212 417.692C341.852 417.692 344.3 417.212 346.556 416.252C348.812 415.244 350.852 413.732 352.676 411.716L358.724 417.476C356.372 420.212 353.492 422.3 350.084 423.74C346.676 425.18 342.884 425.9 338.708 425.9Z" fill="black"/>
<path d="M234.146 425.18L256.826 374.78H266.042L288.794 425.18H279.002L259.49 379.748H263.234L243.794 425.18H234.146ZM244.586 413.516L247.106 406.172H274.322L276.842 413.516H244.586Z" fill="black"/>
<path d="M185.516 425.18L163.484 374.78H173.636L193.292 420.356H187.46L207.332 374.78H216.692L194.732 425.18H185.516Z" fill="black"/>
<path d="M1742.57 425.9C1738.63 425.9 1734.86 425.348 1731.26 424.244C1727.66 423.092 1724.81 421.628 1722.69 419.852L1725.93 412.58C1727.95 414.164 1730.45 415.484 1733.42 416.54C1736.4 417.596 1739.45 418.124 1742.57 418.124C1745.21 418.124 1747.34 417.836 1748.97 417.26C1750.61 416.684 1751.81 415.916 1752.57 414.956C1753.34 413.948 1753.73 412.82 1753.73 411.572C1753.73 410.036 1753.17 408.812 1752.07 407.9C1750.97 406.94 1749.53 406.196 1747.75 405.668C1746.02 405.092 1744.08 404.564 1741.92 404.084C1739.81 403.604 1737.67 403.052 1735.51 402.428C1733.4 401.756 1731.45 400.916 1729.68 399.908C1727.95 398.852 1726.53 397.46 1725.43 395.732C1724.33 394.004 1723.77 391.796 1723.77 389.108C1723.77 386.372 1724.49 383.876 1725.93 381.62C1727.42 379.316 1729.65 377.492 1732.63 376.148C1735.65 374.756 1739.47 374.06 1744.08 374.06C1747.1 374.06 1750.1 374.444 1753.08 375.212C1756.05 375.98 1758.65 377.084 1760.85 378.524L1757.9 385.796C1755.65 384.452 1753.32 383.468 1750.92 382.844C1748.52 382.172 1746.21 381.836 1744.01 381.836C1741.41 381.836 1739.3 382.148 1737.67 382.772C1736.09 383.396 1734.91 384.212 1734.14 385.22C1733.42 386.228 1733.06 387.38 1733.06 388.676C1733.06 390.212 1733.59 391.46 1734.65 392.42C1735.75 393.332 1737.17 394.052 1738.89 394.58C1740.67 395.108 1742.64 395.636 1744.8 396.164C1746.96 396.644 1749.09 397.196 1751.21 397.82C1753.37 398.444 1755.31 399.26 1757.04 400.268C1758.81 401.276 1760.23 402.644 1761.29 404.372C1762.39 406.1 1762.94 408.284 1762.94 410.924C1762.94 413.612 1762.2 416.108 1760.71 418.412C1759.27 420.668 1757.04 422.492 1754.01 423.884C1750.99 425.228 1747.17 425.9 1742.57 425.9Z" fill="black"/>
<path d="M1663.31 425.18V374.78H1672.67V417.26H1699.02V425.18H1663.31Z" fill="black"/>
<path d="M1581.38 425.18L1604.05 374.78H1613.27L1636.02 425.18H1626.23L1606.72 379.748H1610.46L1591.02 425.18H1581.38ZM1591.81 413.516L1594.33 406.172H1621.55L1624.07 413.516H1591.81Z" fill="black"/>
<path d="M1537.07 425.18V382.7H1520.36V374.78H1563.13V382.7H1546.43V425.18H1537.07Z" fill="black"/>
<path d="M1447.67 425.18V374.78H1455.38L1486.98 413.588H1483.17V374.78H1492.46V425.18H1484.75L1453.14 386.372H1456.96V425.18H1447.67Z" fill="black"/>
<path d="M1387.2 395.732H1412.25V403.436H1387.2V395.732ZM1387.92 417.332H1416.36V425.18H1378.56V374.78H1415.35V382.628H1387.92V417.332Z" fill="black"/>
<path d="M1305.01 425.18V374.78H1325.75C1330.21 374.78 1334.03 375.5 1337.2 376.94C1340.41 378.38 1342.89 380.444 1344.61 383.132C1346.34 385.82 1347.21 389.012 1347.21 392.708C1347.21 396.404 1346.34 399.596 1344.61 402.284C1342.89 404.924 1340.41 406.964 1337.2 408.404C1334.03 409.796 1330.21 410.492 1325.75 410.492H1310.2L1314.37 406.244V425.18H1305.01ZM1337.99 425.18L1325.25 406.892H1335.25L1348.07 425.18H1337.99ZM1314.37 407.252L1310.2 402.788H1325.32C1329.45 402.788 1332.54 401.9 1334.61 400.124C1336.72 398.348 1337.77 395.876 1337.77 392.708C1337.77 389.492 1336.72 387.02 1334.61 385.292C1332.54 383.564 1329.45 382.7 1325.32 382.7H1310.2L1314.37 378.092V407.252Z" fill="black"/>
<path d="M798.4 320.393C803.371 320.393 807.4 324.422 807.4 329.393V375.593H867.6C872.571 375.593 876.6 379.622 876.6 384.593C876.6 389.563 872.571 393.593 867.6 393.593H798.4C793.43 393.593 789.4 389.563 789.4 384.593V329.393C789.4 324.422 793.43 320.393 798.4 320.393Z" fill="black"/>
<path d="M1000 68.6763C1001.74 68.6273 1003.5 69.0369 1005.07 69.9548L1204.27 186.73C1205.19 187.27 1205.97 187.942 1206.59 188.704C1209.01 190.318 1210.6 193.069 1210.6 196.193V384.593C1210.6 389.563 1206.57 393.593 1201.6 393.593H1008.8C1003.83 393.593 999.8 389.563 999.8 384.593C999.801 379.622 1003.83 375.593 1008.8 375.593H1192.6V200.707L999.999 87.8013L807.4 200.707V250.193C807.4 255.163 803.371 259.193 798.4 259.193C793.43 259.193 789.4 255.163 789.4 250.193V196.193C789.401 193.07 790.991 190.318 793.407 188.704C794.035 187.942 794.813 187.27 795.734 186.73L994.934 69.9548C996.5 69.0369 998.26 68.6273 1000 68.6763Z" fill="black"/>
</svg>
