<svg width="2000" height="500" viewBox="0 0 2000 500" fill="none" xmlns="http://www.w3.org/2000/svg">
<path fill-rule="evenodd" clip-rule="evenodd" d="M1338.27 173.414C1340 172.112 1341.96 171.57 1344.13 171.787C1346.51 172.004 1348.47 172.98 1349.99 174.716C1351.5 176.453 1352.16 178.514 1351.94 180.902C1351.72 183.072 1350.85 184.917 1349.33 186.436L1331.43 203.039C1328.61 206.295 1327.09 210.094 1326.87 214.435C1326.87 217.907 1328.5 221.272 1331.75 224.527C1335.23 227.565 1340.11 231.255 1346.4 235.595C1353.13 239.502 1358.88 244.494 1363.66 250.571C1367.35 255.78 1369.41 261.64 1369.84 268.151C1370.49 274.445 1369.3 280.413 1366.26 286.056C1365.39 287.792 1365.5 289.42 1366.59 290.939C1367.89 292.459 1369.52 293.001 1371.47 292.567C1413.12 282.581 1449.67 263.024 1481.12 233.9C1481.75 233.294 1482.37 232.71 1482.99 232.149C1483.04 232.104 1483.09 232.059 1483.14 232.014C1483.65 231.43 1484.21 230.946 1484.82 230.559C1491.94 224.584 1498.71 221.596 1505.14 221.596H1505.46C1507.85 221.596 1509.8 222.464 1511.32 224.2C1513.06 225.936 1513.92 227.999 1513.92 230.386C1513.92 232.557 1513.06 234.51 1511.32 236.246C1509.58 237.765 1507.52 238.525 1505.14 238.525C1501.66 238.525 1496.78 241.998 1490.48 248.943C1484.19 255.671 1479.96 262.942 1477.79 270.755C1476.05 275.53 1476.16 280.304 1478.11 285.079C1480.07 289.637 1483.32 292.892 1487.88 294.845C1491.79 297.884 1496.13 299.186 1500.9 298.752C1505.68 298.101 1509.58 295.931 1512.62 292.241C1516.96 287.467 1517.83 284.103 1515.23 282.149C1509.15 278.243 1505.35 272.708 1503.83 265.546C1502.31 258.384 1503.51 251.764 1507.41 245.688C1515.88 231.363 1524.34 226.697 1532.81 231.688C1536.93 234.076 1539.64 238.851 1540.95 246.013C1542.25 253.175 1542.14 260.663 1540.62 268.476C1540.19 270.429 1540.62 272.383 1541.92 274.336C1543.23 276.072 1544.85 277.158 1546.81 277.592C1574.15 282.15 1600.96 280.196 1627.22 271.731C1653.48 263.267 1676.38 249.268 1695.91 229.735C1698.08 227.252 1700.22 224.211 1703.51 223.224C1705.68 222.573 1707.74 222.79 1709.7 223.875C1711.87 224.961 1713.28 226.588 1713.93 228.759C1714.8 230.929 1714.69 232.991 1713.6 234.944C1713.17 236.029 1712.41 237.657 1711.32 239.827C1710.46 241.78 1709.15 245.362 1707.42 250.571C1705.9 255.779 1704.92 260.663 1704.49 265.22C1704.05 269.778 1704.49 274.661 1705.79 279.87C1707.31 284.862 1710.02 288.768 1713.93 291.59C1723.48 298.535 1734.11 302.877 1745.83 304.613C1757.55 306.132 1768.73 305.59 1779.37 302.985C1790.22 300.381 1801.29 296.365 1812.57 290.939C1824.07 285.297 1834.06 279.545 1842.52 273.685C1851.2 267.825 1859.45 261.639 1867.26 255.128C1875.29 248.617 1880.94 243.843 1884.19 240.804C1887.45 237.549 1889.62 235.379 1890.7 234.293C1892.44 232.557 1894.39 231.688 1896.56 231.688C1898.95 231.688 1901.01 232.557 1902.75 234.293C1904.49 235.813 1905.35 237.765 1905.35 240.153C1905.35 242.54 1904.59 244.602 1903.08 246.338C1900.47 248.942 1897.11 252.199 1892.98 256.105C1888.86 259.795 1881.26 265.981 1870.19 274.662C1859.34 283.127 1848.49 290.722 1837.64 297.45C1826.79 303.961 1813.98 309.822 1799.22 315.031C1784.47 320.24 1770.57 322.844 1757.55 322.844C1737.59 323.061 1719.68 317.2 1703.84 305.263C1697.76 300.923 1693.42 295.172 1690.81 288.01C1688.21 280.848 1687.02 274.227 1687.23 268.15C1687.34 265.211 1687.65 262.17 1688.16 259.028C1680.42 264.872 1672.26 270.084 1663.68 274.661C1647.62 283.125 1631.88 288.986 1616.47 292.241C1601.06 295.497 1586.41 297.125 1572.52 297.125C1558.85 296.908 1546.59 295.171 1535.74 291.916C1534.22 291.482 1533.02 292.024 1532.16 293.543C1529.33 300.054 1524.99 305.264 1519.13 309.17C1513.49 313.077 1507.09 315.138 1499.93 315.355C1492.76 315.355 1486.14 313.619 1480.07 310.147C1471.82 306.24 1465.96 300.163 1462.49 291.916C1459.77 285.465 1458.98 278.882 1460.11 272.166C1448.5 279.725 1435.67 286.744 1421.61 293.219C1391.44 307.109 1363.22 314.054 1336.96 314.054C1331.32 314.054 1325.89 313.728 1320.69 313.077C1309.83 312.209 1299.85 308.954 1290.73 303.311C1281.62 297.451 1274.35 289.854 1268.92 280.522C1267.84 278.568 1267.62 276.507 1268.27 274.336C1268.71 272.166 1269.9 270.43 1271.85 269.127C1273.81 267.825 1275.87 267.5 1278.04 268.151C1280.43 268.585 1282.27 269.778 1283.57 271.731C1290.74 281.281 1300.07 287.359 1311.57 289.963C1323.29 292.351 1334.36 290.614 1344.78 284.754C1349.33 282.15 1352.05 278.351 1352.92 273.359C1354 268.151 1352.7 263.593 1349.01 259.687C1345.32 255.78 1341.2 252.416 1336.64 249.595C1327.52 244.169 1319.93 237.223 1313.85 228.759C1312.98 227.239 1311.68 226.372 1309.94 226.155C1308.21 225.938 1306.79 226.371 1305.71 227.457L1280.97 250.897C1278.58 253.067 1275.76 253.718 1272.5 252.85C1269.25 251.982 1267.3 249.919 1266.64 246.664C1265.78 243.408 1266.64 240.587 1269.25 238.199L1319.06 191.32C1324.7 184.592 1331.1 178.623 1338.27 173.414ZM1524.34 250.571C1523.47 252.09 1522.71 253.284 1522.06 254.152C1520.76 256.105 1520.22 258.276 1520.44 260.663C1520.65 263.05 1521.74 265.003 1523.69 266.522C1524.56 261.314 1524.78 255.996 1524.34 250.571Z" fill="white"/>
<path d="M1712.95 177.646C1715.34 177.646 1717.4 178.515 1719.14 180.251C1720.87 181.77 1721.74 183.723 1721.74 186.111C1721.96 188.281 1721.2 190.235 1719.46 191.971C1713.39 198.265 1706.55 203.366 1698.95 207.272C1697.65 208.14 1696.24 208.574 1694.72 208.574C1690.38 208.574 1687.67 206.404 1686.58 202.063C1685.5 197.723 1686.91 194.466 1690.81 192.296C1696.89 189.257 1702.32 185.243 1707.09 180.251C1708.83 178.515 1710.78 177.646 1712.95 177.646Z" fill="white"/>
<path fill-rule="evenodd" clip-rule="evenodd" d="M446.376 34.69C450.065 33.6048 453.647 33.7135 457.12 35.0158C460.592 36.101 463.521 38.1637 465.909 41.2021C470.249 46.411 472.528 53.4642 472.745 62.3626C473.179 71.0439 471.987 80.2678 469.165 90.0341C466.561 99.8007 462.545 110.653 457.12 122.59C451.694 134.527 446.051 145.704 440.191 156.122C434.331 166.54 427.819 177.392 420.657 188.678C413.495 199.964 407.418 209.187 402.426 216.349C397.434 223.512 392.551 230.457 387.776 237.185C387.776 237.185 387.559 237.511 387.125 238.161L385.282 240.924C385.213 241.415 385.099 241.885 384.936 242.335C382.043 257.628 380.386 266.438 379.963 268.764C379.746 270.283 380.289 271.368 381.591 272.019C383.11 272.67 384.412 272.454 385.497 271.369C404.379 251.619 421.851 242.394 437.911 243.696C444.205 244.13 449.957 246.084 455.166 249.557C460.592 253.029 464.824 257.587 467.862 263.23C471.552 269.741 476.436 275.167 482.513 279.508C488.59 283.848 495.318 286.561 502.697 287.646C511.813 288.948 522.122 288.081 533.624 285.042C545.344 281.787 555.654 277.88 564.552 273.322C573.451 268.548 582.674 262.904 592.224 256.394C601.773 249.883 608.068 245.325 611.106 242.72L619.245 236.209C620.03 235.522 620.882 235.013 621.8 234.681C624.116 231.162 626.83 227.656 629.943 224.163C638.841 214.18 648.716 206.366 659.568 200.724C670.637 195.081 680.513 192.475 689.194 192.91C695.054 192.91 700.046 194.972 704.169 199.096C708.51 203.219 710.898 208.32 711.332 214.397C712.417 224.815 706.556 234.256 693.752 242.72C675.304 254.223 655.119 259.323 633.198 258.021C632.113 257.804 631.137 258.021 630.269 258.672C629.401 259.323 629.074 260.192 629.291 261.277C627.772 272.345 634.935 281.026 650.779 287.32C664.886 293.18 680.078 296.653 696.355 297.738C712.633 298.607 727.826 297.739 741.933 295.135C756.04 292.53 770.474 288.515 785.233 283.089C799.991 277.663 812.579 272.236 822.996 266.81C833.631 261.167 843.832 255.308 853.599 249.231C865.469 241.748 876.512 234.042 887.059 224.814C899.43 215.482 914.297 209.188 931.66 205.933C949.022 202.46 964.867 203.653 979.191 209.513C990.694 215.156 996.012 222.101 995.144 230.349C994.276 238.813 986.027 246.953 970.401 254.766C967.58 256.068 965.952 258.346 965.518 261.601C965.3 264.857 966.494 267.462 969.099 269.415H969.425C971.161 270.934 973.114 271.586 975.284 271.369C977.671 271.152 979.625 270.174 981.144 268.438C987.655 261.276 993.841 254.874 999.701 249.231C1002.96 246.627 1006.65 245.215 1010.77 244.998C1014.89 244.564 1018.8 245.542 1022.49 247.929C1032.26 254.657 1043 258.455 1054.72 259.323C1066.44 260.191 1076.75 259.323 1085.65 256.718C1094.76 254.114 1103.88 250.316 1112.99 245.324C1122.33 240.333 1128.62 236.643 1131.88 234.256C1135.35 231.651 1137.95 229.589 1139.69 228.069C1141.43 226.55 1143.49 225.9 1145.87 226.117C1148.26 226.334 1150.22 227.311 1151.73 229.047C1153.25 230.783 1153.9 232.845 1153.69 235.232C1153.47 237.619 1152.49 239.573 1150.76 241.092C1149.02 242.612 1146.2 244.782 1142.29 247.603C1138.6 250.425 1131.66 254.657 1121.46 260.299C1111.26 265.725 1101.06 269.958 1090.86 272.997C1080.66 276.035 1068.83 277.229 1055.37 276.578C1041.91 275.71 1029.43 271.911 1017.93 265.183C1014.03 262.578 1010.34 262.905 1006.86 266.16C1000.79 272.237 994.601 278.639 988.307 285.367C986.571 287.754 986.244 290.468 987.33 293.507C991.019 302.622 992.647 312.606 992.213 323.458C991.779 334.309 990.042 345.053 987.004 355.688C983.965 366.322 979.842 376.957 974.634 387.592C969.425 398.227 963.998 407.776 958.355 416.241C952.712 424.705 946.961 432.301 941.102 439.029C925.258 457.043 911.475 466.05 899.755 466.05C898.236 466.05 896.608 465.833 894.872 465.399C890.966 464.53 887.493 462.578 884.454 459.539C881.416 456.718 879.463 453.245 878.595 449.121C874.905 434.797 881.2 412.876 897.477 383.359C913.755 354.059 934.156 324.434 958.681 294.483C960.2 292.53 960.851 290.359 960.634 287.972C960.417 285.368 959.332 283.305 957.379 281.786C946.961 274.841 935.566 270.934 923.195 270.066C921.025 269.849 919.181 268.981 917.662 267.462C916.359 265.943 915.599 264.206 915.382 262.253C915.382 260.083 915.925 258.13 917.01 256.394C918.312 254.657 919.94 253.572 921.893 253.138C935.566 249.883 948.047 245.758 959.332 240.767C970.618 235.775 976.913 231.759 978.215 228.721C976.262 227.202 974.091 225.899 971.704 224.814C961.069 220.473 948.48 219.823 933.939 222.861C919.615 225.683 907.461 230.891 897.477 238.487C883.526 250.695 868.491 260.494 852.623 270.066C838.949 278.096 825.275 285.151 811.602 291.228C798.146 297.304 781.868 302.839 762.769 307.831C743.67 312.822 725.438 315.319 708.075 315.319C685.938 315.536 664.668 311.52 644.267 303.273C637.756 300.669 632.221 297.63 627.664 294.157C623.323 290.468 620.068 286.995 617.897 283.739C615.727 280.267 614.208 276.686 613.34 272.997C612.356 269.456 611.909 266.36 611.996 263.711C608.682 266.046 604.697 268.816 600.038 272.019C589.62 278.964 579.419 284.934 569.436 289.926C559.669 294.7 548.274 298.715 535.252 301.97C522.447 305.226 510.727 306.094 500.092 304.575C490.109 302.839 480.993 299.15 472.745 293.507C464.498 287.647 457.987 280.376 453.212 271.695C449.523 264.967 443.989 261.276 436.609 260.625C433.788 260.408 430.64 260.951 427.168 262.253C423.695 263.555 419.246 265.943 413.82 269.415C408.611 272.671 402.425 278.205 395.263 286.019C388.101 293.615 380.614 303.165 372.801 314.667C370.413 318.14 367.158 319.116 363.034 317.597C358.911 316.078 357.066 313.148 357.5 308.807C358.559 295.385 360.912 278.946 364.558 259.49C342.851 275.02 319.293 287.444 293.884 296.761C261.329 308.698 227.688 314.775 192.962 314.992C176.034 314.992 159.213 313.473 142.502 310.435C132.735 308.698 124.487 306.203 117.759 302.947C111.03 299.475 106.147 295.676 103.109 291.552C99.8535 287.429 97.6832 283.63 96.598 280.158C95.2959 276.468 94.6446 272.779 94.6445 269.09C94.6445 258.238 98.7687 247.06 107.016 235.558C115.046 223.838 124.596 214.07 135.665 206.257C146.951 198.444 157.368 193.561 166.918 191.608C180.157 187.918 192.094 190.197 202.729 198.444C211.627 206.909 216.077 217.326 216.077 229.697C215.86 232.084 214.883 234.146 213.147 235.882C211.628 237.401 209.674 238.161 207.286 238.161C204.899 238.161 202.837 237.294 201.101 235.558C199.582 233.821 198.822 231.759 198.822 229.371C199.039 222.426 196.651 216.458 191.659 211.466C184.931 207.126 177.769 206.149 170.173 208.536C158.236 210.707 145.431 218.629 131.758 232.302C118.302 245.758 111.573 258.021 111.573 269.09C111.791 281.46 123.077 289.708 145.431 293.831C159.321 296.219 173.32 297.521 187.428 297.738C201.752 297.955 214.775 297.304 226.495 295.785C238.431 294.049 250.26 291.661 261.98 288.622C273.7 285.584 284.117 282.22 293.233 278.53C302.348 274.841 311.138 270.825 319.602 266.485C328.284 261.927 335.446 257.911 341.089 254.439C346.949 250.966 352.375 247.386 357.367 243.696C362.18 240.139 365.478 237.69 367.265 236.352C367.369 236.196 367.477 236.039 367.592 235.883L369.871 232.628C375.514 204.847 382.133 177.826 389.73 151.565C395.373 130.946 401.016 113.041 406.659 97.8482C412.301 82.6558 416.967 71.3696 420.657 63.9904C424.563 56.3942 428.47 50.2085 432.377 45.4337C436.5 40.6593 439.322 37.8376 440.841 36.9693C442.577 36.1011 444.422 35.3411 446.376 34.69ZM969.099 317.923C965.192 316.621 961.828 317.597 959.007 320.853C939.256 346.897 923.087 371.857 910.499 395.731C897.911 419.605 892.811 435.991 895.198 444.89C895.415 447.277 896.718 448.578 899.105 448.795C901.058 449.446 904.748 448.036 910.173 444.564C915.599 441.091 921.676 435.448 928.404 427.635C940.992 413.311 951.627 396.815 960.309 378.15C969.207 359.702 974.091 342.557 974.959 326.713C975.176 322.372 973.222 319.442 969.099 317.923ZM688.217 209.838C681.272 209.404 673.133 211.901 663.801 217.327C654.686 222.752 646.981 229.697 640.687 238.161C637.865 242.068 639.058 243.804 644.267 243.37C653.382 242.719 664.995 238.813 679.102 231.651C681.272 230.349 683.116 229.263 684.636 228.395C691.363 223.838 694.511 219.714 694.077 216.025C693.86 213.638 693.318 212.117 692.45 211.466C691.581 210.598 690.17 210.055 688.217 209.838ZM451.259 50.9685C447.135 50.9689 439.864 62.6887 429.447 86.1283C419.246 109.351 410.348 133.008 402.752 157.099C395.373 181.19 392.985 193.995 395.589 195.515C396.674 196.166 398.845 194.32 402.1 189.98C405.355 185.639 409.046 179.78 413.17 172.401C417.293 164.804 421.634 156.231 426.191 146.681C430.966 137.132 435.307 127.473 439.213 117.707C443.337 107.723 446.81 98.1735 449.631 89.058C452.453 79.9425 454.189 72.2379 454.84 65.9439C455.491 59.4328 454.731 54.7662 452.561 51.9447C451.91 51.2938 451.476 50.9685 451.259 50.9685Z" fill="white"/>
<path d="M183.369 397.109C186.008 397.989 188.076 399.441 189.616 401.421C191.133 403.422 191.903 405.908 191.903 408.899C191.903 413.013 190.319 416.18 187.152 418.402C183.984 420.646 179.365 421.745 173.338 421.745H149.846V374.409H172.018C177.583 374.409 181.873 375.531 184.864 377.752C187.9 379.93 189.44 382.921 189.44 386.727C189.44 389.08 188.868 391.17 187.768 392.974C186.712 394.8 185.238 396.185 183.369 397.109ZM158.644 381.36V394.382H171.05C174.152 394.382 176.528 393.832 178.177 392.71C179.805 391.61 180.641 389.982 180.641 387.871C180.641 385.715 179.805 384.087 178.177 383.031C176.528 381.932 174.152 381.36 171.05 381.36H158.644ZM172.81 414.882C179.607 414.882 183.017 412.595 183.017 408.019C183.017 403.51 179.607 401.245 172.81 401.245H158.644V414.882H172.81Z" fill="white"/>
<path d="M246.953 422.449C242.136 422.449 237.803 421.394 233.931 419.282C230.06 417.17 227.003 414.267 224.781 410.571C222.603 406.876 221.525 402.718 221.525 398.077C221.525 393.502 222.603 389.367 224.781 385.671C227.003 381.932 230.06 379.028 233.931 376.96C237.803 374.849 242.136 373.793 246.953 373.793C251.815 373.793 256.192 374.849 260.063 376.96C263.935 379.028 266.948 381.888 269.126 385.583C271.348 389.279 272.469 393.458 272.469 398.077C272.469 402.718 271.348 406.876 269.126 410.571C266.948 414.267 263.935 417.17 260.063 419.282C256.192 421.394 251.815 422.449 246.953 422.449ZM246.953 414.707C250.121 414.707 252.959 414.003 255.488 412.595C257.996 411.187 259.975 409.229 261.383 406.7C262.835 404.126 263.583 401.245 263.583 398.077C263.583 394.91 262.835 392.072 261.383 389.543C259.975 387.035 257.996 385.055 255.488 383.647C252.959 382.196 250.121 381.448 246.953 381.448C243.83 381.448 241.014 382.196 238.507 383.647C235.977 385.055 233.975 387.035 232.524 389.543C231.05 392.072 230.324 394.91 230.324 398.077C230.324 401.245 231.05 404.126 232.524 406.7C233.975 409.229 235.977 411.187 238.507 412.595C241.014 414.003 243.83 414.707 246.953 414.707Z" fill="white"/>
<path d="M325.687 422.449C319.176 422.449 314.094 420.602 310.465 416.906C306.813 413.211 305.01 407.975 305.01 401.157V374.409H313.72V400.805C313.72 410.087 317.724 414.706 325.775 414.706C333.737 414.706 337.741 410.087 337.741 400.805V374.409H346.363V401.157C346.363 407.975 344.538 413.211 340.908 416.906C337.323 420.602 332.242 422.449 325.687 422.449Z" fill="white"/>
<path d="M391.865 381.888H376.203V374.409H416.325V381.888H400.663V421.745H391.865V381.888Z" fill="white"/>
<path d="M446.564 374.409H455.363V421.745H446.564V374.409Z" fill="white"/>
<path d="M541.726 426.497C540.142 428.301 538.295 429.686 536.183 430.632C534.071 431.622 531.784 432.128 529.32 432.128C526.086 432.128 523.117 431.38 520.433 429.928C517.728 428.454 514.648 425.903 511.195 422.273C506.795 421.922 502.858 420.668 499.405 418.49C495.929 416.334 493.245 413.475 491.31 409.955C489.374 406.392 488.406 402.433 488.406 398.077C488.406 393.502 489.484 389.367 491.662 385.671C493.883 381.932 496.941 379.028 500.812 376.96C504.684 374.849 509.017 373.793 513.834 373.793C518.696 373.793 523.073 374.849 526.944 376.96C530.816 379.028 533.829 381.888 536.007 385.583C538.229 389.279 539.35 393.458 539.35 398.077C539.35 401.839 538.58 405.292 537.063 408.46C535.589 411.627 533.543 414.333 530.904 416.554C528.264 418.798 525.185 420.404 521.665 421.394C522.941 422.801 524.217 423.791 525.449 424.385C526.724 425.023 528.11 425.353 529.584 425.353C532.619 425.353 535.325 424.077 537.679 421.57L541.726 426.497ZM497.205 398.077C497.205 401.245 497.931 404.126 499.405 406.7C500.856 409.229 502.858 411.187 505.388 412.595C507.895 414.003 510.711 414.707 513.834 414.707C517.002 414.707 519.839 414.003 522.369 412.595C524.877 411.187 526.856 409.229 528.264 406.7C529.716 404.126 530.464 401.245 530.464 398.077C530.464 394.91 529.716 392.072 528.264 389.543C526.856 387.035 524.877 385.055 522.369 383.647C519.839 382.196 517.002 381.448 513.834 381.448C510.711 381.448 507.895 382.196 505.388 383.647C502.858 385.055 500.856 387.035 499.405 389.543C497.931 392.072 497.205 394.91 497.205 398.077Z" fill="white"/>
<path d="M592.565 422.449C586.054 422.449 580.973 420.602 577.344 416.906C573.692 413.211 571.889 407.975 571.889 401.157V374.409H580.599V400.805C580.599 410.087 584.603 414.706 592.653 414.706C600.616 414.706 604.62 410.087 604.62 400.805V374.409H613.242V401.157C613.242 407.975 611.417 413.211 607.787 416.906C604.202 420.602 599.12 422.449 592.565 422.449Z" fill="white"/>
<path d="M684.613 414.354V421.745H649.154V374.409H683.733V381.8H657.953V394.118H680.829V401.333H657.953V414.354H684.613Z" fill="white"/>
<path d="M1329.66 423.634L1319.84 409.622C1319.42 409.622 1318.8 409.622 1317.97 409.622H1307.17V423.634H1298.25V375.618H1317.97C1322.12 375.618 1325.76 376.31 1328.86 377.671C1331.94 379.054 1334.3 381.018 1335.91 383.561C1337.56 386.127 1338.41 389.184 1338.41 392.754C1338.41 396.324 1337.52 399.425 1335.73 402.036C1333.99 404.668 1331.49 406.587 1328.23 407.837L1339.21 423.634H1329.66ZM1329.48 392.754C1329.48 389.675 1328.46 387.31 1326.45 385.703C1324.42 384.052 1321.47 383.204 1317.61 383.204H1307.17V402.303H1317.61C1321.47 402.303 1324.42 401.478 1326.45 399.804C1328.46 398.153 1329.48 395.788 1329.48 392.754Z" fill="white"/>
<path d="M1408.26 416.137V423.634H1372.29V375.618H1407.37V383.115H1381.22V395.61H1404.42V402.928H1381.22V416.137H1408.26Z" fill="white"/>
<path d="M1484.82 375.618V423.634H1477.5L1450.99 391.147V423.634H1442.16V375.618H1449.48L1475.98 408.104V375.618H1484.82Z" fill="white"/>
<path d="M1531.34 383.204H1515.46V375.618H1556.15V383.204H1540.27V423.634H1531.34V383.204Z" fill="white"/>
<path d="M1617.97 412.567H1593.96L1589.23 423.634H1580.04L1601.64 375.618H1610.39L1632.07 423.634H1622.79L1617.97 412.567ZM1615.03 405.516L1605.92 384.543L1597 405.516H1615.03Z" fill="white"/>
<path d="M1662.1 375.618H1671.03V416.137H1696.11V423.634H1662.1V375.618Z" fill="white"/>
<path d="M1742.01 424.347C1738.31 424.347 1734.74 423.811 1731.3 422.74C1727.84 421.669 1725.1 420.286 1723.09 418.546L1726.13 411.674C1728.09 413.235 1730.5 414.507 1733.36 415.511C1736.21 416.471 1739.09 416.939 1742.01 416.939C1745.58 416.939 1748.22 416.381 1749.96 415.243C1751.74 414.061 1752.63 412.544 1752.63 410.692C1752.63 409.331 1752.12 408.193 1751.12 407.3C1750.16 406.408 1748.91 405.739 1747.37 405.248C1745.87 404.712 1743.82 404.132 1741.21 403.463C1737.57 402.637 1734.63 401.767 1732.37 400.875C1730.1 399.982 1728.13 398.621 1726.48 396.769C1724.88 394.94 1724.07 392.441 1724.07 389.272C1724.07 386.662 1724.79 384.274 1726.22 382.133C1727.69 379.946 1729.87 378.206 1732.73 376.956C1735.63 375.662 1739.2 374.993 1743.44 374.993C1746.34 374.993 1749.2 375.35 1752.01 376.064C1754.86 376.778 1757.32 377.826 1759.42 379.187L1756.56 386.149C1754.46 384.899 1752.28 383.984 1749.96 383.382C1747.68 382.735 1745.49 382.4 1743.35 382.4C1739.83 382.4 1737.22 383.003 1735.5 384.185C1733.76 385.39 1732.91 386.952 1732.91 388.915C1732.91 390.299 1733.38 391.414 1734.34 392.307C1735.34 393.155 1736.59 393.824 1738.09 394.359C1739.62 394.85 1741.7 395.386 1744.33 395.966C1747.9 396.814 1750.8 397.662 1753.08 398.554C1755.4 399.447 1757.36 400.83 1758.97 402.66C1760.58 404.511 1761.38 406.988 1761.38 410.067C1761.38 412.7 1760.67 415.11 1759.24 417.296C1757.81 419.438 1755.62 421.178 1752.72 422.473C1749.8 423.722 1746.23 424.347 1742.01 424.347Z" fill="white"/>
<path d="M798.4 320.393C803.371 320.393 807.4 324.422 807.4 329.393V375.593H867.6C872.571 375.593 876.6 379.622 876.6 384.593C876.6 389.563 872.571 393.593 867.6 393.593H798.4C793.43 393.593 789.4 389.563 789.4 384.593V329.393C789.4 324.422 793.43 320.393 798.4 320.393Z" fill="white"/>
<path d="M1000 68.6763C1001.74 68.6273 1003.5 69.0369 1005.07 69.9548L1204.27 186.73C1205.19 187.27 1205.97 187.942 1206.59 188.704C1209.01 190.318 1210.6 193.069 1210.6 196.193V384.593C1210.6 389.563 1206.57 393.593 1201.6 393.593H1008.8C1003.83 393.593 999.8 389.563 999.8 384.593C999.801 379.622 1003.83 375.593 1008.8 375.593H1192.6V200.707L999.999 87.8013L807.4 200.707V250.193C807.4 255.163 803.371 259.193 798.4 259.193C793.43 259.193 789.4 255.163 789.4 250.193V196.193C789.401 193.07 790.991 190.318 793.407 188.704C794.035 187.942 794.813 187.27 795.734 186.73L994.934 69.9548C996.5 69.0369 998.26 68.6273 1000 68.6763Z" fill="white"/>
</svg>
