<svg width="2000" height="500" viewBox="0 0 2000 500" fill="none" xmlns="http://www.w3.org/2000/svg">
<path fill-rule="evenodd" clip-rule="evenodd" d="M1338.27 173.414C1340 172.112 1341.96 171.57 1344.13 171.787C1346.51 172.004 1348.47 172.98 1349.99 174.716C1351.5 176.453 1352.16 178.514 1351.94 180.902C1351.72 183.072 1350.85 184.917 1349.33 186.436L1331.43 203.039C1328.61 206.295 1327.09 210.094 1326.87 214.435C1326.87 217.907 1328.5 221.272 1331.75 224.527C1335.23 227.565 1340.11 231.255 1346.4 235.595C1353.13 239.502 1358.88 244.494 1363.66 250.571C1367.35 255.78 1369.41 261.64 1369.84 268.151C1370.49 274.445 1369.3 280.413 1366.26 286.056C1365.39 287.792 1365.5 289.42 1366.59 290.939C1367.89 292.459 1369.52 293.001 1371.47 292.567C1413.12 282.581 1449.67 263.024 1481.12 233.9C1481.75 233.294 1482.37 232.71 1482.99 232.149C1483.04 232.104 1483.09 232.059 1483.14 232.014C1483.65 231.43 1484.21 230.946 1484.82 230.559C1491.94 224.584 1498.71 221.596 1505.14 221.596H1505.46C1507.85 221.596 1509.8 222.464 1511.32 224.2C1513.06 225.936 1513.92 227.999 1513.92 230.386C1513.92 232.557 1513.06 234.51 1511.32 236.246C1509.58 237.765 1507.52 238.525 1505.14 238.525C1501.66 238.525 1496.78 241.998 1490.48 248.943C1484.19 255.671 1479.96 262.942 1477.79 270.755C1476.05 275.53 1476.16 280.304 1478.11 285.079C1480.07 289.637 1483.32 292.892 1487.88 294.845C1491.79 297.884 1496.13 299.186 1500.9 298.752C1505.68 298.101 1509.58 295.931 1512.62 292.241C1516.96 287.467 1517.83 284.103 1515.23 282.149C1509.15 278.243 1505.35 272.708 1503.83 265.546C1502.31 258.384 1503.51 251.764 1507.41 245.688C1515.88 231.363 1524.34 226.697 1532.81 231.688C1536.93 234.076 1539.64 238.851 1540.95 246.013C1542.25 253.175 1542.14 260.663 1540.62 268.476C1540.19 270.429 1540.62 272.383 1541.92 274.336C1543.23 276.072 1544.85 277.158 1546.81 277.592C1574.15 282.15 1600.96 280.196 1627.22 271.731C1653.48 263.267 1676.38 249.268 1695.91 229.735C1698.08 227.252 1700.22 224.211 1703.51 223.224C1705.68 222.573 1707.74 222.79 1709.7 223.875C1711.87 224.961 1713.28 226.588 1713.93 228.759C1714.8 230.929 1714.69 232.991 1713.6 234.944C1713.17 236.029 1712.41 237.657 1711.32 239.827C1710.46 241.78 1709.15 245.362 1707.42 250.571C1705.9 255.779 1704.92 260.663 1704.49 265.22C1704.05 269.778 1704.49 274.661 1705.79 279.87C1707.31 284.862 1710.02 288.768 1713.93 291.59C1723.48 298.535 1734.11 302.877 1745.83 304.613C1757.55 306.132 1768.73 305.59 1779.37 302.985C1790.22 300.381 1801.29 296.365 1812.57 290.939C1824.07 285.297 1834.06 279.545 1842.52 273.685C1851.2 267.825 1859.45 261.639 1867.26 255.128C1875.29 248.617 1880.94 243.843 1884.19 240.804C1887.45 237.549 1889.62 235.379 1890.7 234.293C1892.44 232.557 1894.39 231.688 1896.56 231.688C1898.95 231.688 1901.01 232.557 1902.75 234.293C1904.49 235.813 1905.35 237.765 1905.35 240.153C1905.35 242.54 1904.59 244.602 1903.08 246.338C1900.47 248.942 1897.11 252.199 1892.98 256.105C1888.86 259.795 1881.26 265.981 1870.19 274.662C1859.34 283.127 1848.49 290.722 1837.64 297.45C1826.79 303.961 1813.98 309.822 1799.22 315.031C1784.47 320.24 1770.57 322.844 1757.55 322.844C1737.59 323.061 1719.68 317.2 1703.84 305.263C1697.76 300.923 1693.42 295.172 1690.81 288.01C1688.21 280.848 1687.02 274.227 1687.23 268.15C1687.34 265.211 1687.65 262.17 1688.16 259.028C1680.42 264.872 1672.26 270.084 1663.68 274.661C1647.62 283.125 1631.88 288.986 1616.47 292.241C1601.06 295.497 1586.41 297.125 1572.52 297.125C1558.85 296.908 1546.59 295.171 1535.74 291.916C1534.22 291.482 1533.02 292.024 1532.16 293.543C1529.33 300.054 1524.99 305.264 1519.13 309.17C1513.49 313.077 1507.09 315.138 1499.93 315.355C1492.76 315.355 1486.14 313.619 1480.07 310.147C1471.82 306.24 1465.96 300.163 1462.49 291.916C1459.77 285.465 1458.98 278.882 1460.11 272.166C1448.5 279.725 1435.67 286.744 1421.61 293.219C1391.44 307.109 1363.22 314.054 1336.96 314.054C1331.32 314.054 1325.89 313.728 1320.69 313.077C1309.83 312.209 1299.85 308.954 1290.73 303.311C1281.62 297.451 1274.35 289.854 1268.92 280.522C1267.84 278.568 1267.62 276.507 1268.27 274.336C1268.71 272.166 1269.9 270.43 1271.85 269.127C1273.81 267.825 1275.87 267.5 1278.04 268.151C1280.43 268.585 1282.27 269.778 1283.57 271.731C1290.74 281.281 1300.07 287.359 1311.57 289.963C1323.29 292.351 1334.36 290.614 1344.78 284.754C1349.33 282.15 1352.05 278.351 1352.92 273.359C1354 268.151 1352.7 263.593 1349.01 259.687C1345.32 255.78 1341.2 252.416 1336.64 249.595C1327.52 244.169 1319.93 237.223 1313.85 228.759C1312.98 227.239 1311.68 226.372 1309.94 226.155C1308.21 225.938 1306.79 226.371 1305.71 227.457L1280.97 250.897C1278.58 253.067 1275.76 253.718 1272.5 252.85C1269.25 251.982 1267.3 249.919 1266.64 246.664C1265.78 243.408 1266.64 240.587 1269.25 238.199L1319.06 191.32C1324.7 184.592 1331.1 178.623 1338.27 173.414ZM1524.34 250.571C1523.47 252.09 1522.71 253.284 1522.06 254.152C1520.76 256.105 1520.22 258.276 1520.44 260.663C1520.65 263.05 1521.74 265.003 1523.69 266.522C1524.56 261.314 1524.78 255.996 1524.34 250.571Z" fill="black"/>
<path d="M1712.95 177.646C1715.34 177.646 1717.4 178.515 1719.14 180.251C1720.87 181.77 1721.74 183.723 1721.74 186.111C1721.96 188.281 1721.2 190.235 1719.46 191.971C1713.39 198.265 1706.55 203.366 1698.95 207.272C1697.65 208.14 1696.24 208.574 1694.72 208.574C1690.38 208.574 1687.67 206.404 1686.58 202.063C1685.5 197.723 1686.91 194.466 1690.81 192.296C1696.89 189.257 1702.32 185.243 1707.09 180.251C1708.83 178.515 1710.78 177.646 1712.95 177.646Z" fill="black"/>
<path fill-rule="evenodd" clip-rule="evenodd" d="M446.376 34.69C450.065 33.6048 453.647 33.7135 457.12 35.0158C460.592 36.101 463.521 38.1637 465.909 41.2021C470.249 46.411 472.528 53.4642 472.745 62.3626C473.179 71.0439 471.987 80.2678 469.165 90.0341C466.561 99.8007 462.545 110.653 457.12 122.59C451.694 134.527 446.051 145.704 440.191 156.122C434.331 166.54 427.819 177.392 420.657 188.678C413.495 199.964 407.418 209.187 402.426 216.349C397.434 223.512 392.551 230.457 387.776 237.185C387.776 237.185 387.559 237.511 387.125 238.161L385.282 240.924C385.213 241.415 385.099 241.885 384.936 242.335C382.043 257.628 380.386 266.438 379.963 268.764C379.746 270.283 380.289 271.368 381.591 272.019C383.11 272.67 384.412 272.454 385.497 271.369C404.379 251.619 421.851 242.394 437.911 243.696C444.205 244.13 449.957 246.084 455.166 249.557C460.592 253.029 464.824 257.587 467.862 263.23C471.552 269.741 476.436 275.167 482.513 279.508C488.59 283.848 495.318 286.561 502.697 287.646C511.813 288.948 522.122 288.081 533.624 285.042C545.344 281.787 555.654 277.88 564.552 273.322C573.451 268.548 582.674 262.904 592.224 256.394C601.773 249.883 608.068 245.325 611.106 242.72L619.245 236.209C620.03 235.522 620.882 235.013 621.8 234.681C624.116 231.162 626.83 227.656 629.943 224.163C638.841 214.18 648.716 206.366 659.568 200.724C670.637 195.081 680.513 192.475 689.194 192.91C695.054 192.91 700.046 194.972 704.169 199.096C708.51 203.219 710.898 208.32 711.332 214.397C712.417 224.815 706.556 234.256 693.752 242.72C675.304 254.223 655.119 259.323 633.198 258.021C632.113 257.804 631.137 258.021 630.269 258.672C629.401 259.323 629.074 260.192 629.291 261.277C627.772 272.345 634.935 281.026 650.779 287.32C664.886 293.18 680.078 296.653 696.355 297.738C712.633 298.607 727.826 297.739 741.933 295.135C756.04 292.53 770.474 288.515 785.233 283.089C799.991 277.663 812.579 272.236 822.996 266.81C833.631 261.167 843.832 255.308 853.599 249.231C865.469 241.748 876.512 234.042 887.059 224.814C899.43 215.482 914.297 209.188 931.66 205.933C949.022 202.46 964.867 203.653 979.191 209.513C990.694 215.156 996.012 222.101 995.144 230.349C994.276 238.813 986.027 246.953 970.401 254.766C967.58 256.068 965.952 258.346 965.518 261.601C965.3 264.857 966.494 267.462 969.099 269.415H969.425C971.161 270.934 973.114 271.586 975.284 271.369C977.671 271.152 979.625 270.174 981.144 268.438C987.655 261.276 993.841 254.874 999.701 249.231C1002.96 246.627 1006.65 245.215 1010.77 244.998C1014.89 244.564 1018.8 245.542 1022.49 247.929C1032.26 254.657 1043 258.455 1054.72 259.323C1066.44 260.191 1076.75 259.323 1085.65 256.718C1094.76 254.114 1103.88 250.316 1112.99 245.324C1122.33 240.333 1128.62 236.643 1131.88 234.256C1135.35 231.651 1137.95 229.589 1139.69 228.069C1141.43 226.55 1143.49 225.9 1145.87 226.117C1148.26 226.334 1150.22 227.311 1151.73 229.047C1153.25 230.783 1153.9 232.845 1153.69 235.232C1153.47 237.619 1152.49 239.573 1150.76 241.092C1149.02 242.612 1146.2 244.782 1142.29 247.603C1138.6 250.425 1131.66 254.657 1121.46 260.299C1111.26 265.725 1101.06 269.958 1090.86 272.997C1080.66 276.035 1068.83 277.229 1055.37 276.578C1041.91 275.71 1029.43 271.911 1017.93 265.183C1014.03 262.578 1010.34 262.905 1006.86 266.16C1000.79 272.237 994.601 278.639 988.307 285.367C986.571 287.754 986.244 290.468 987.33 293.507C991.019 302.622 992.647 312.606 992.213 323.458C991.779 334.309 990.042 345.053 987.004 355.688C983.965 366.322 979.842 376.957 974.634 387.592C969.425 398.227 963.998 407.776 958.355 416.241C952.712 424.705 946.961 432.301 941.102 439.029C925.258 457.043 911.475 466.05 899.755 466.05C898.236 466.05 896.608 465.833 894.872 465.399C890.966 464.53 887.493 462.578 884.454 459.539C881.416 456.718 879.463 453.245 878.595 449.121C874.905 434.797 881.2 412.876 897.477 383.359C913.755 354.059 934.156 324.434 958.681 294.483C960.2 292.53 960.851 290.359 960.634 287.972C960.417 285.368 959.332 283.305 957.379 281.786C946.961 274.841 935.566 270.934 923.195 270.066C921.025 269.849 919.181 268.981 917.662 267.462C916.359 265.943 915.599 264.206 915.382 262.253C915.382 260.083 915.925 258.13 917.01 256.394C918.312 254.657 919.94 253.572 921.893 253.138C935.566 249.883 948.047 245.758 959.332 240.767C970.618 235.775 976.913 231.759 978.215 228.721C976.262 227.202 974.091 225.899 971.704 224.814C961.069 220.473 948.48 219.823 933.939 222.861C919.615 225.683 907.461 230.891 897.477 238.487C883.526 250.695 868.491 260.494 852.623 270.066C838.949 278.096 825.275 285.151 811.602 291.228C798.146 297.304 781.868 302.839 762.769 307.831C743.67 312.822 725.438 315.319 708.075 315.319C685.938 315.536 664.668 311.52 644.267 303.273C637.756 300.669 632.221 297.63 627.664 294.157C623.323 290.468 620.068 286.995 617.897 283.739C615.727 280.267 614.208 276.686 613.34 272.997C612.356 269.456 611.909 266.36 611.996 263.711C608.682 266.046 604.697 268.816 600.038 272.019C589.62 278.964 579.419 284.934 569.436 289.926C559.669 294.7 548.274 298.715 535.252 301.97C522.447 305.226 510.727 306.094 500.092 304.575C490.109 302.839 480.993 299.15 472.745 293.507C464.498 287.647 457.987 280.376 453.212 271.695C449.523 264.967 443.989 261.276 436.609 260.625C433.788 260.408 430.64 260.951 427.168 262.253C423.695 263.555 419.246 265.943 413.82 269.415C408.611 272.671 402.425 278.205 395.263 286.019C388.101 293.615 380.614 303.165 372.801 314.667C370.413 318.14 367.158 319.116 363.034 317.597C358.911 316.078 357.066 313.148 357.5 308.807C358.559 295.385 360.912 278.946 364.558 259.49C342.851 275.02 319.293 287.444 293.884 296.761C261.329 308.698 227.688 314.775 192.962 314.992C176.034 314.992 159.213 313.473 142.502 310.435C132.735 308.698 124.487 306.203 117.759 302.947C111.03 299.475 106.147 295.676 103.109 291.552C99.8535 287.429 97.6832 283.63 96.598 280.158C95.2959 276.468 94.6446 272.779 94.6445 269.09C94.6445 258.238 98.7687 247.06 107.016 235.558C115.046 223.838 124.596 214.07 135.665 206.257C146.951 198.444 157.368 193.561 166.918 191.608C180.157 187.918 192.094 190.197 202.729 198.444C211.627 206.909 216.077 217.326 216.077 229.697C215.86 232.084 214.883 234.146 213.147 235.882C211.628 237.401 209.674 238.161 207.286 238.161C204.899 238.161 202.837 237.294 201.101 235.558C199.582 233.821 198.822 231.759 198.822 229.371C199.039 222.426 196.651 216.458 191.659 211.466C184.931 207.126 177.769 206.149 170.173 208.536C158.236 210.707 145.431 218.629 131.758 232.302C118.302 245.758 111.573 258.021 111.573 269.09C111.791 281.46 123.077 289.708 145.431 293.831C159.321 296.219 173.32 297.521 187.428 297.738C201.752 297.955 214.775 297.304 226.495 295.785C238.431 294.049 250.26 291.661 261.98 288.622C273.7 285.584 284.117 282.22 293.233 278.53C302.348 274.841 311.138 270.825 319.602 266.485C328.284 261.927 335.446 257.911 341.089 254.439C346.949 250.966 352.375 247.386 357.367 243.696C362.18 240.139 365.478 237.69 367.265 236.352C367.369 236.196 367.477 236.039 367.592 235.883L369.871 232.628C375.514 204.847 382.133 177.826 389.73 151.565C395.373 130.946 401.016 113.041 406.659 97.8482C412.301 82.6558 416.967 71.3696 420.657 63.9904C424.563 56.3942 428.47 50.2085 432.377 45.4337C436.5 40.6593 439.322 37.8376 440.841 36.9693C442.577 36.1011 444.422 35.3411 446.376 34.69ZM969.099 317.923C965.192 316.621 961.828 317.597 959.007 320.853C939.256 346.897 923.087 371.857 910.499 395.731C897.911 419.605 892.811 435.991 895.198 444.89C895.415 447.277 896.718 448.578 899.105 448.795C901.058 449.446 904.748 448.036 910.173 444.564C915.599 441.091 921.676 435.448 928.404 427.635C940.992 413.311 951.627 396.815 960.309 378.15C969.207 359.702 974.091 342.557 974.959 326.713C975.176 322.372 973.222 319.442 969.099 317.923ZM688.217 209.838C681.272 209.404 673.133 211.901 663.801 217.327C654.686 222.752 646.981 229.697 640.687 238.161C637.865 242.068 639.058 243.804 644.267 243.37C653.382 242.719 664.995 238.813 679.102 231.651C681.272 230.349 683.116 229.263 684.636 228.395C691.363 223.838 694.511 219.714 694.077 216.025C693.86 213.638 693.318 212.117 692.45 211.466C691.581 210.598 690.17 210.055 688.217 209.838ZM451.259 50.9685C447.135 50.9689 439.864 62.6887 429.447 86.1283C419.246 109.351 410.348 133.008 402.752 157.099C395.373 181.19 392.985 193.995 395.589 195.515C396.674 196.166 398.845 194.32 402.1 189.98C405.355 185.639 409.046 179.78 413.17 172.401C417.293 164.804 421.634 156.231 426.191 146.681C430.966 137.132 435.307 127.473 439.213 117.707C443.337 107.723 446.81 98.1735 449.631 89.058C452.453 79.9425 454.189 72.2379 454.84 65.9439C455.491 59.4328 454.731 54.7662 452.561 51.9447C451.91 51.2938 451.476 50.9685 451.259 50.9685Z" fill="black"/>
<path d="M357.651 425.9C353.715 425.9 349.947 425.348 346.347 424.244C342.747 423.092 339.891 421.628 337.779 419.852L341.019 412.58C343.035 414.164 345.531 415.484 348.507 416.54C351.483 417.596 354.531 418.124 357.651 418.124C360.291 418.124 362.427 417.836 364.059 417.26C365.691 416.684 366.891 415.916 367.659 414.956C368.427 413.948 368.811 412.82 368.811 411.572C368.811 410.036 368.259 408.812 367.155 407.9C366.051 406.94 364.611 406.196 362.835 405.668C361.107 405.092 359.163 404.564 357.003 404.084C354.891 403.604 352.755 403.052 350.595 402.428C348.483 401.756 346.539 400.916 344.763 399.908C343.035 398.852 341.619 397.46 340.515 395.732C339.411 394.004 338.859 391.796 338.859 389.108C338.859 386.372 339.579 383.876 341.019 381.62C342.507 379.316 344.739 377.492 347.715 376.148C350.739 374.756 354.555 374.06 359.163 374.06C362.187 374.06 365.187 374.444 368.163 375.212C371.139 375.98 373.731 377.084 375.939 378.524L372.987 385.796C370.731 384.452 368.403 383.468 366.003 382.844C363.603 382.172 361.299 381.836 359.091 381.836C356.499 381.836 354.387 382.148 352.755 382.772C351.171 383.396 349.995 384.212 349.227 385.22C348.507 386.228 348.147 387.38 348.147 388.676C348.147 390.212 348.675 391.46 349.731 392.42C350.835 393.332 352.251 394.052 353.979 394.58C355.755 395.108 357.723 395.636 359.883 396.164C362.043 396.644 364.179 397.196 366.291 397.82C368.451 398.444 370.395 399.26 372.123 400.268C373.899 401.276 375.315 402.644 376.371 404.372C377.475 406.1 378.027 408.284 378.027 410.924C378.027 413.612 377.283 416.108 375.795 418.412C374.355 420.668 372.123 422.492 369.099 423.884C366.075 425.228 362.259 425.9 357.651 425.9ZM417.709 425.18V382.7H401.005V374.78H443.773V382.7H427.069V425.18H417.709ZM462.018 425.18L484.698 374.78H493.914L516.666 425.18H506.874L487.362 379.748H491.106L471.666 425.18H462.018ZM472.458 413.516L474.978 406.172H502.194L504.714 413.516H472.458ZM553.316 425.18V405.236L555.404 410.996L533.516 374.78H543.524L561.092 403.94H555.476L573.188 374.78H582.404L560.516 410.996L562.676 405.236V425.18H553.316ZM623.983 425.9C620.047 425.9 616.279 425.348 612.679 424.244C609.079 423.092 606.223 421.628 604.111 419.852L607.351 412.58C609.367 414.164 611.863 415.484 614.839 416.54C617.815 417.596 620.863 418.124 623.983 418.124C626.623 418.124 628.759 417.836 630.391 417.26C632.023 416.684 633.223 415.916 633.991 414.956C634.759 413.948 635.143 412.82 635.143 411.572C635.143 410.036 634.591 408.812 633.487 407.9C632.383 406.94 630.943 406.196 629.167 405.668C627.439 405.092 625.495 404.564 623.335 404.084C621.223 403.604 619.087 403.052 616.927 402.428C614.815 401.756 612.871 400.916 611.095 399.908C609.367 398.852 607.951 397.46 606.847 395.732C605.743 394.004 605.191 391.796 605.191 389.108C605.191 386.372 605.911 383.876 607.351 381.62C608.839 379.316 611.071 377.492 614.047 376.148C617.071 374.756 620.887 374.06 625.495 374.06C628.519 374.06 631.519 374.444 634.495 375.212C637.471 375.98 640.063 377.084 642.271 378.524L639.319 385.796C637.063 384.452 634.735 383.468 632.335 382.844C629.935 382.172 627.631 381.836 625.423 381.836C622.831 381.836 620.719 382.148 619.087 382.772C617.503 383.396 616.327 384.212 615.559 385.22C614.839 386.228 614.479 387.38 614.479 388.676C614.479 390.212 615.007 391.46 616.063 392.42C617.167 393.332 618.583 394.052 620.311 394.58C622.087 395.108 624.055 395.636 626.215 396.164C628.375 396.644 630.511 397.196 632.623 397.82C634.783 398.444 636.727 399.26 638.455 400.268C640.231 401.276 641.647 402.644 642.703 404.372C643.807 406.1 644.359 408.284 644.359 410.924C644.359 413.612 643.615 416.108 642.127 418.412C640.687 420.668 638.455 422.492 635.431 423.884C632.407 425.228 628.591 425.9 623.983 425.9Z" fill="black"/>
<path d="M1359.51 425.18V374.78H1383.13C1389.17 374.78 1393.78 375.98 1396.95 378.38C1400.12 380.732 1401.7 383.9 1401.7 387.884C1401.7 390.572 1401.08 392.876 1399.83 394.796C1398.58 396.668 1396.9 398.132 1394.79 399.188C1392.73 400.196 1390.47 400.7 1388.02 400.7L1389.32 398.108C1392.15 398.108 1394.69 398.636 1396.95 399.692C1399.21 400.7 1400.98 402.188 1402.28 404.156C1403.62 406.124 1404.29 408.572 1404.29 411.5C1404.29 415.82 1402.64 419.18 1399.33 421.58C1396.01 423.98 1391.09 425.18 1384.57 425.18H1359.51ZM1368.87 417.836H1383.99C1387.49 417.836 1390.18 417.26 1392.05 416.108C1393.93 414.956 1394.86 413.108 1394.86 410.564C1394.86 408.068 1393.93 406.244 1392.05 405.092C1390.18 403.892 1387.49 403.292 1383.99 403.292H1368.15V396.02H1382.12C1385.38 396.02 1387.88 395.444 1389.61 394.292C1391.38 393.14 1392.27 391.412 1392.27 389.108C1392.27 386.756 1391.38 385.004 1389.61 383.852C1387.88 382.7 1385.38 382.124 1382.12 382.124H1368.87V417.836ZM1446.49 425.18V405.236L1448.58 410.996L1426.69 374.78H1436.7L1454.27 403.94H1448.65L1466.36 374.78H1475.58L1453.69 410.996L1455.85 405.236V425.18H1446.49ZM1551.22 425.9C1548 425.9 1545.02 425.276 1542.29 424.028C1539.6 422.78 1537.39 420.98 1535.66 418.628L1540.99 412.22C1542.38 414.14 1543.9 415.58 1545.53 416.54C1547.21 417.5 1549.03 417.98 1551 417.98C1556.23 417.98 1558.85 414.884 1558.85 408.692V382.628H1540.92V374.78H1568.21V408.188C1568.21 414.14 1566.74 418.58 1563.82 421.508C1560.94 424.436 1556.74 425.9 1551.22 425.9ZM1616.76 425.9C1613.26 425.9 1610.11 425.324 1607.33 424.172C1604.55 423.02 1602.36 421.436 1600.78 419.42C1599.19 417.404 1598.4 415.076 1598.4 412.436C1598.4 410.036 1598.93 407.876 1599.99 405.956C1601.04 404.036 1602.72 402.212 1605.03 400.484C1607.33 398.708 1610.28 396.932 1613.88 395.156C1616.71 393.764 1618.92 392.54 1620.51 391.484C1622.14 390.428 1623.27 389.42 1623.89 388.46C1624.56 387.5 1624.9 386.492 1624.9 385.436C1624.9 383.996 1624.39 382.844 1623.39 381.98C1622.38 381.068 1620.94 380.612 1619.07 380.612C1617.05 380.612 1615.47 381.116 1614.31 382.124C1613.21 383.084 1612.66 384.356 1612.66 385.94C1612.66 386.756 1612.8 387.548 1613.09 388.316C1613.43 389.084 1614 389.948 1614.82 390.908C1615.63 391.868 1616.81 393.092 1618.35 394.58L1644.99 420.14L1640.02 425.972L1611.22 398.324C1609.59 396.74 1608.27 395.276 1607.26 393.932C1606.25 392.588 1605.53 391.292 1605.1 390.044C1604.67 388.748 1604.45 387.428 1604.45 386.084C1604.45 383.732 1605.05 381.668 1606.25 379.892C1607.45 378.068 1609.15 376.676 1611.36 375.716C1613.57 374.708 1616.14 374.204 1619.07 374.204C1621.8 374.204 1624.15 374.66 1626.12 375.572C1628.14 376.436 1629.7 377.708 1630.8 379.388C1631.95 381.02 1632.53 382.988 1632.53 385.292C1632.53 387.308 1632.03 389.18 1631.02 390.908C1630.01 392.588 1628.43 394.196 1626.27 395.732C1624.15 397.268 1621.32 398.876 1617.77 400.556C1615.13 401.852 1613.04 403.076 1611.51 404.228C1609.97 405.38 1608.87 406.532 1608.19 407.684C1607.52 408.836 1607.19 410.108 1607.19 411.5C1607.19 412.892 1607.59 414.116 1608.41 415.172C1609.27 416.228 1610.47 417.068 1612.01 417.692C1613.55 418.268 1615.35 418.556 1617.41 418.556C1620.48 418.556 1623.27 417.884 1625.76 416.54C1628.31 415.148 1630.44 413.084 1632.17 410.348C1633.9 407.612 1635.15 404.228 1635.91 400.196L1643.19 402.572C1642.18 407.42 1640.43 411.596 1637.93 415.1C1635.48 418.556 1632.46 421.22 1628.86 423.092C1625.26 424.964 1621.23 425.9 1616.76 425.9ZM1667.44 425.18L1690.12 374.78H1699.33L1722.09 425.18H1712.29L1692.78 379.748H1696.53L1677.09 425.18H1667.44ZM1677.88 413.516L1680.4 406.172H1707.61L1710.13 413.516H1677.88Z" fill="black"/>
<path d="M798.4 320.893C803.371 320.893 807.4 324.922 807.4 329.893V376.093H867.6C872.571 376.093 876.6 380.122 876.6 385.093C876.6 390.063 872.571 394.093 867.6 394.093H798.4C793.43 394.093 789.4 390.063 789.4 385.093V329.893C789.4 324.922 793.43 320.893 798.4 320.893Z" fill="black"/>
<path d="M1000 69.1763C1001.74 69.1273 1003.5 69.5369 1005.07 70.4548L1204.27 187.23C1205.19 187.77 1205.97 188.442 1206.59 189.204C1209.01 190.818 1210.6 193.569 1210.6 196.693V385.093C1210.6 390.063 1206.57 394.093 1201.6 394.093H1008.8C1003.83 394.093 999.8 390.063 999.8 385.093C999.801 380.122 1003.83 376.093 1008.8 376.093H1192.6V201.207L999.999 88.3013L807.4 201.207V250.693C807.4 255.663 803.371 259.693 798.4 259.693C793.43 259.693 789.4 255.663 789.4 250.693V196.693C789.401 193.57 790.991 190.818 793.407 189.204C794.035 188.442 794.813 187.77 795.734 187.23L994.934 70.4548C996.5 69.5369 998.26 69.1273 1000 69.1763Z" fill="black"/>
</svg>
