<svg width="2000" height="600" viewBox="0 0 2000 600" fill="none" xmlns="http://www.w3.org/2000/svg">
<path fill-rule="evenodd" clip-rule="evenodd" d="M1338.27 173.414C1340 172.112 1341.96 171.57 1344.13 171.787C1346.51 172.004 1348.47 172.98 1349.99 174.716C1351.5 176.453 1352.16 178.514 1351.94 180.902C1351.72 183.072 1350.85 184.917 1349.33 186.436L1331.43 203.039C1328.61 206.295 1327.09 210.094 1326.87 214.435C1326.87 217.907 1328.5 221.272 1331.75 224.527C1335.23 227.565 1340.11 231.255 1346.4 235.595C1353.13 239.502 1358.88 244.494 1363.66 250.571C1367.35 255.78 1369.41 261.64 1369.84 268.151C1370.49 274.445 1369.3 280.413 1366.26 286.056C1365.39 287.792 1365.5 289.42 1366.59 290.939C1367.89 292.459 1369.52 293.001 1371.47 292.567C1413.12 282.581 1449.67 263.024 1481.12 233.9C1481.75 233.294 1482.37 232.71 1482.99 232.149C1483.04 232.104 1483.09 232.059 1483.14 232.014C1483.65 231.43 1484.21 230.946 1484.82 230.559C1491.94 224.584 1498.71 221.596 1505.14 221.596H1505.46C1507.85 221.596 1509.8 222.464 1511.32 224.2C1513.06 225.936 1513.92 227.999 1513.92 230.386C1513.92 232.557 1513.06 234.51 1511.32 236.246C1509.58 237.765 1507.52 238.525 1505.14 238.525C1501.66 238.525 1496.78 241.998 1490.48 248.943C1484.19 255.671 1479.96 262.942 1477.79 270.755C1476.05 275.53 1476.16 280.304 1478.11 285.079C1480.07 289.637 1483.32 292.892 1487.88 294.845C1491.79 297.884 1496.13 299.186 1500.9 298.752C1505.68 298.101 1509.58 295.931 1512.62 292.241C1516.96 287.467 1517.83 284.103 1515.23 282.149C1509.15 278.243 1505.35 272.708 1503.83 265.546C1502.31 258.384 1503.51 251.764 1507.41 245.688C1515.88 231.363 1524.34 226.697 1532.81 231.688C1536.93 234.076 1539.64 238.851 1540.95 246.013C1542.25 253.175 1542.14 260.663 1540.62 268.476C1540.19 270.429 1540.62 272.383 1541.92 274.336C1543.23 276.072 1544.85 277.158 1546.81 277.592C1574.15 282.15 1600.96 280.196 1627.22 271.731C1653.48 263.267 1676.38 249.268 1695.91 229.735C1698.08 227.252 1700.22 224.211 1703.51 223.224C1705.68 222.573 1707.74 222.79 1709.7 223.875C1711.87 224.961 1713.28 226.588 1713.93 228.759C1714.8 230.929 1714.69 232.991 1713.6 234.944C1713.17 236.029 1712.41 237.657 1711.32 239.827C1710.46 241.78 1709.15 245.362 1707.42 250.571C1705.9 255.779 1704.92 260.663 1704.49 265.22C1704.05 269.778 1704.49 274.661 1705.79 279.87C1707.31 284.862 1710.02 288.768 1713.93 291.59C1723.48 298.535 1734.11 302.877 1745.83 304.613C1757.55 306.132 1768.73 305.59 1779.37 302.985C1790.22 300.381 1801.29 296.365 1812.57 290.939C1824.07 285.297 1834.06 279.545 1842.52 273.685C1851.2 267.825 1859.45 261.639 1867.26 255.128C1875.29 248.617 1880.94 243.843 1884.19 240.804C1887.45 237.549 1889.62 235.379 1890.7 234.293C1892.44 232.557 1894.39 231.688 1896.56 231.688C1898.95 231.688 1901.01 232.557 1902.75 234.293C1904.49 235.813 1905.35 237.765 1905.35 240.153C1905.35 242.54 1904.59 244.602 1903.08 246.338C1900.47 248.942 1897.11 252.199 1892.98 256.105C1888.86 259.795 1881.26 265.981 1870.19 274.662C1859.34 283.127 1848.49 290.722 1837.64 297.45C1826.79 303.961 1813.98 309.822 1799.22 315.031C1784.47 320.24 1770.57 322.844 1757.55 322.844C1737.59 323.061 1719.68 317.2 1703.84 305.263C1697.76 300.923 1693.42 295.172 1690.81 288.01C1688.21 280.848 1687.02 274.227 1687.23 268.15C1687.34 265.211 1687.65 262.17 1688.16 259.028C1680.42 264.872 1672.26 270.084 1663.68 274.661C1647.62 283.125 1631.88 288.986 1616.47 292.241C1601.06 295.497 1586.41 297.125 1572.52 297.125C1558.85 296.908 1546.59 295.171 1535.74 291.916C1534.22 291.482 1533.02 292.024 1532.16 293.543C1529.33 300.054 1524.99 305.264 1519.13 309.17C1513.49 313.077 1507.09 315.138 1499.93 315.355C1492.76 315.355 1486.14 313.619 1480.07 310.147C1471.82 306.24 1465.96 300.163 1462.49 291.916C1459.77 285.465 1458.98 278.882 1460.11 272.166C1448.5 279.725 1435.67 286.744 1421.61 293.219C1391.44 307.109 1363.22 314.054 1336.96 314.054C1331.32 314.054 1325.89 313.728 1320.69 313.077C1309.83 312.209 1299.85 308.954 1290.73 303.311C1281.62 297.451 1274.35 289.854 1268.92 280.522C1267.84 278.568 1267.62 276.507 1268.27 274.336C1268.71 272.166 1269.9 270.43 1271.85 269.127C1273.81 267.825 1275.87 267.5 1278.04 268.151C1280.43 268.585 1282.27 269.778 1283.57 271.731C1290.74 281.281 1300.07 287.359 1311.57 289.963C1323.29 292.351 1334.36 290.614 1344.78 284.754C1349.33 282.15 1352.05 278.351 1352.92 273.359C1354 268.151 1352.7 263.593 1349.01 259.687C1345.32 255.78 1341.2 252.416 1336.64 249.595C1327.52 244.169 1319.93 237.223 1313.85 228.759C1312.98 227.239 1311.68 226.372 1309.94 226.155C1308.21 225.938 1306.79 226.371 1305.71 227.457L1280.97 250.897C1278.58 253.067 1275.76 253.718 1272.5 252.85C1269.25 251.982 1267.3 249.919 1266.64 246.664C1265.78 243.408 1266.64 240.587 1269.25 238.199L1319.06 191.32C1324.7 184.592 1331.1 178.623 1338.27 173.414ZM1524.34 250.571C1523.47 252.09 1522.71 253.284 1522.06 254.152C1520.76 256.105 1520.22 258.276 1520.44 260.663C1520.65 263.05 1521.74 265.003 1523.69 266.522C1524.56 261.314 1524.78 255.996 1524.34 250.571Z" fill="white"/>
<path d="M1712.95 177.646C1715.34 177.646 1717.4 178.515 1719.14 180.251C1720.87 181.77 1721.74 183.723 1721.74 186.111C1721.96 188.281 1721.2 190.235 1719.46 191.971C1713.39 198.265 1706.55 203.366 1698.95 207.272C1697.65 208.14 1696.24 208.574 1694.72 208.574C1690.38 208.574 1687.67 206.404 1686.58 202.063C1685.5 197.723 1686.91 194.466 1690.81 192.296C1696.89 189.257 1702.32 185.243 1707.09 180.251C1708.83 178.515 1710.78 177.646 1712.95 177.646Z" fill="white"/>
<path fill-rule="evenodd" clip-rule="evenodd" d="M446.376 34.69C450.065 33.6048 453.647 33.7135 457.12 35.0158C460.592 36.101 463.521 38.1637 465.909 41.2021C470.249 46.411 472.528 53.4642 472.745 62.3626C473.179 71.0439 471.987 80.2678 469.165 90.0341C466.561 99.8007 462.545 110.653 457.12 122.59C451.694 134.527 446.051 145.704 440.191 156.122C434.331 166.54 427.819 177.392 420.657 188.678C413.495 199.964 407.418 209.187 402.426 216.349C397.434 223.512 392.551 230.457 387.776 237.185C387.776 237.185 387.559 237.511 387.125 238.161L385.282 240.924C385.213 241.415 385.099 241.885 384.936 242.335C382.043 257.628 380.386 266.438 379.963 268.764C379.746 270.283 380.289 271.368 381.591 272.019C383.11 272.67 384.412 272.454 385.497 271.369C404.379 251.619 421.851 242.394 437.911 243.696C444.205 244.13 449.957 246.084 455.166 249.557C460.592 253.029 464.824 257.587 467.862 263.23C471.552 269.741 476.436 275.167 482.513 279.508C488.59 283.848 495.318 286.561 502.697 287.646C511.813 288.948 522.122 288.081 533.624 285.042C545.344 281.787 555.654 277.88 564.552 273.322C573.451 268.548 582.674 262.904 592.224 256.394C601.773 249.883 608.068 245.325 611.106 242.72L619.245 236.209C620.03 235.522 620.882 235.013 621.8 234.681C624.116 231.162 626.83 227.656 629.943 224.163C638.841 214.18 648.716 206.366 659.568 200.724C670.637 195.081 680.513 192.475 689.194 192.91C695.054 192.91 700.046 194.972 704.169 199.096C708.51 203.219 710.898 208.32 711.332 214.397C712.417 224.815 706.556 234.256 693.752 242.72C675.304 254.223 655.119 259.323 633.198 258.021C632.113 257.804 631.137 258.021 630.269 258.672C629.401 259.323 629.074 260.192 629.291 261.277C627.772 272.345 634.935 281.026 650.779 287.32C664.886 293.18 680.078 296.653 696.355 297.738C712.633 298.607 727.826 297.739 741.933 295.135C756.04 292.53 770.474 288.515 785.233 283.089C799.991 277.663 812.579 272.236 822.996 266.81C833.631 261.167 843.832 255.308 853.599 249.231C865.469 241.748 876.512 234.042 887.059 224.814C899.43 215.482 914.297 209.188 931.66 205.933C949.022 202.46 964.867 203.653 979.191 209.513C990.694 215.156 996.012 222.101 995.144 230.349C994.276 238.813 986.027 246.953 970.401 254.766C967.58 256.068 965.952 258.346 965.518 261.601C965.3 264.857 966.494 267.462 969.099 269.415H969.425C971.161 270.934 973.114 271.586 975.284 271.369C977.671 271.152 979.625 270.174 981.144 268.438C987.655 261.276 993.841 254.874 999.701 249.231C1002.96 246.627 1006.65 245.215 1010.77 244.998C1014.89 244.564 1018.8 245.542 1022.49 247.929C1032.26 254.657 1043 258.455 1054.72 259.323C1066.44 260.191 1076.75 259.323 1085.65 256.718C1094.76 254.114 1103.88 250.316 1112.99 245.324C1122.33 240.333 1128.62 236.643 1131.88 234.256C1135.35 231.651 1137.95 229.589 1139.69 228.069C1141.43 226.55 1143.49 225.9 1145.87 226.117C1148.26 226.334 1150.22 227.311 1151.73 229.047C1153.25 230.783 1153.9 232.845 1153.69 235.232C1153.47 237.619 1152.49 239.573 1150.76 241.092C1149.02 242.612 1146.2 244.782 1142.29 247.603C1138.6 250.425 1131.66 254.657 1121.46 260.299C1111.26 265.725 1101.06 269.958 1090.86 272.997C1080.66 276.035 1068.83 277.229 1055.37 276.578C1041.91 275.71 1029.43 271.911 1017.93 265.183C1014.03 262.578 1010.34 262.905 1006.86 266.16C1000.79 272.237 994.601 278.639 988.307 285.367C986.571 287.754 986.244 290.468 987.33 293.507C991.019 302.622 992.647 312.606 992.213 323.458C991.779 334.309 990.042 345.053 987.004 355.688C983.965 366.322 979.842 376.957 974.634 387.592C969.425 398.227 963.998 407.776 958.355 416.241C952.712 424.705 946.961 432.301 941.102 439.029C925.258 457.043 911.475 466.05 899.755 466.05C898.236 466.05 896.608 465.833 894.872 465.399C890.966 464.53 887.493 462.578 884.454 459.539C881.416 456.718 879.463 453.245 878.595 449.121C874.905 434.797 881.2 412.876 897.477 383.359C913.755 354.059 934.156 324.434 958.681 294.483C960.2 292.53 960.851 290.359 960.634 287.972C960.417 285.368 959.332 283.305 957.379 281.786C946.961 274.841 935.566 270.934 923.195 270.066C921.025 269.849 919.181 268.981 917.662 267.462C916.359 265.943 915.599 264.206 915.382 262.253C915.382 260.083 915.925 258.13 917.01 256.394C918.312 254.657 919.94 253.572 921.893 253.138C935.566 249.883 948.047 245.758 959.332 240.767C970.618 235.775 976.913 231.759 978.215 228.721C976.262 227.202 974.091 225.899 971.704 224.814C961.069 220.473 948.48 219.823 933.939 222.861C919.615 225.683 907.461 230.891 897.477 238.487C883.526 250.695 868.491 260.494 852.623 270.066C838.949 278.096 825.275 285.151 811.602 291.228C798.146 297.304 781.868 302.839 762.769 307.831C743.67 312.822 725.438 315.319 708.075 315.319C685.938 315.536 664.668 311.52 644.267 303.273C637.756 300.669 632.221 297.63 627.664 294.157C623.323 290.468 620.068 286.995 617.897 283.739C615.727 280.267 614.208 276.686 613.34 272.997C612.356 269.456 611.909 266.36 611.996 263.711C608.682 266.046 604.697 268.816 600.038 272.019C589.62 278.964 579.419 284.934 569.436 289.926C559.669 294.7 548.274 298.715 535.252 301.97C522.447 305.226 510.727 306.094 500.092 304.575C490.109 302.839 480.993 299.15 472.745 293.507C464.498 287.647 457.987 280.376 453.212 271.695C449.523 264.967 443.989 261.276 436.609 260.625C433.788 260.408 430.64 260.951 427.168 262.253C423.695 263.555 419.246 265.943 413.82 269.415C408.611 272.671 402.425 278.205 395.263 286.019C388.101 293.615 380.614 303.165 372.801 314.667C370.413 318.14 367.158 319.116 363.034 317.597C358.911 316.078 357.066 313.148 357.5 308.807C358.559 295.385 360.912 278.946 364.558 259.49C342.851 275.02 319.293 287.444 293.884 296.761C261.329 308.698 227.688 314.775 192.962 314.992C176.034 314.992 159.213 313.473 142.502 310.435C132.735 308.698 124.487 306.203 117.759 302.947C111.03 299.475 106.147 295.676 103.109 291.552C99.8535 287.429 97.6832 283.63 96.598 280.158C95.2959 276.468 94.6446 272.779 94.6445 269.09C94.6445 258.238 98.7687 247.06 107.016 235.558C115.046 223.838 124.596 214.07 135.665 206.257C146.951 198.444 157.368 193.561 166.918 191.608C180.157 187.918 192.094 190.197 202.729 198.444C211.627 206.909 216.077 217.326 216.077 229.697C215.86 232.084 214.883 234.146 213.147 235.882C211.628 237.401 209.674 238.161 207.286 238.161C204.899 238.161 202.837 237.294 201.101 235.558C199.582 233.821 198.822 231.759 198.822 229.371C199.039 222.426 196.651 216.458 191.659 211.466C184.931 207.126 177.769 206.149 170.173 208.536C158.236 210.707 145.431 218.629 131.758 232.302C118.302 245.758 111.573 258.021 111.573 269.09C111.791 281.46 123.077 289.708 145.431 293.831C159.321 296.219 173.32 297.521 187.428 297.738C201.752 297.955 214.775 297.304 226.495 295.785C238.431 294.049 250.26 291.661 261.98 288.622C273.7 285.584 284.117 282.22 293.233 278.53C302.348 274.841 311.138 270.825 319.602 266.485C328.284 261.927 335.446 257.911 341.089 254.439C346.949 250.966 352.375 247.386 357.367 243.696C362.18 240.139 365.478 237.69 367.265 236.352C367.369 236.196 367.477 236.039 367.592 235.883L369.871 232.628C375.514 204.847 382.133 177.826 389.73 151.565C395.373 130.946 401.016 113.041 406.659 97.8482C412.301 82.6558 416.967 71.3696 420.657 63.9904C424.563 56.3942 428.47 50.2085 432.377 45.4337C436.5 40.6593 439.322 37.8376 440.841 36.9693C442.577 36.1011 444.422 35.3411 446.376 34.69ZM969.099 317.923C965.192 316.621 961.828 317.597 959.007 320.853C939.256 346.897 923.087 371.857 910.499 395.731C897.911 419.605 892.811 435.991 895.198 444.89C895.415 447.277 896.718 448.578 899.105 448.795C901.058 449.446 904.748 448.036 910.173 444.564C915.599 441.091 921.676 435.448 928.404 427.635C940.992 413.311 951.627 396.815 960.309 378.15C969.207 359.702 974.091 342.557 974.959 326.713C975.176 322.372 973.222 319.442 969.099 317.923ZM688.217 209.838C681.272 209.404 673.133 211.901 663.801 217.327C654.686 222.752 646.981 229.697 640.687 238.161C637.865 242.068 639.058 243.804 644.267 243.37C653.382 242.719 664.995 238.813 679.102 231.651C681.272 230.349 683.116 229.263 684.636 228.395C691.363 223.838 694.511 219.714 694.077 216.025C693.86 213.638 693.318 212.117 692.45 211.466C691.581 210.598 690.17 210.055 688.217 209.838ZM451.259 50.9685C447.135 50.9689 439.864 62.6887 429.447 86.1283C419.246 109.351 410.348 133.008 402.752 157.099C395.373 181.19 392.985 193.995 395.589 195.515C396.674 196.166 398.845 194.32 402.1 189.98C405.355 185.639 409.046 179.78 413.17 172.401C417.293 164.804 421.634 156.231 426.191 146.681C430.966 137.132 435.307 127.473 439.213 117.707C443.337 107.723 446.81 98.1735 449.631 89.058C452.453 79.9425 454.189 72.2379 454.84 65.9439C455.491 59.4328 454.731 54.7662 452.561 51.9447C451.91 51.2938 451.476 50.9685 451.259 50.9685Z" fill="white"/>
<path d="M1808.13 556.017L1828.29 511.217H1836.48L1856.71 556.017H1848L1830.66 515.633H1833.99L1816.71 556.017H1808.13ZM1817.41 545.649L1819.65 539.121H1843.84L1846.08 545.649H1817.41Z" fill="white"/>
<path d="M1767.56 556.657C1764.45 556.657 1761.65 556.145 1759.18 555.121C1756.71 554.097 1754.76 552.689 1753.36 550.897C1751.95 549.105 1751.24 547.036 1751.24 544.689C1751.24 542.556 1751.71 540.636 1752.65 538.929C1753.59 537.222 1755.08 535.601 1757.13 534.065C1759.18 532.486 1761.8 530.908 1765 529.329C1767.52 528.092 1769.48 527.004 1770.89 526.065C1772.34 525.126 1773.35 524.23 1773.9 523.377C1774.5 522.524 1774.8 521.628 1774.8 520.689C1774.8 519.409 1774.35 518.385 1773.45 517.617C1772.56 516.806 1771.28 516.401 1769.61 516.401C1767.82 516.401 1766.41 516.849 1765.39 517.745C1764.41 518.598 1763.92 519.729 1763.92 521.137C1763.92 521.862 1764.04 522.566 1764.3 523.249C1764.6 523.932 1765.11 524.7 1765.84 525.553C1766.56 526.406 1767.61 527.494 1768.97 528.817L1792.65 551.537L1788.24 556.721L1762.64 532.145C1761.19 530.737 1760.01 529.436 1759.12 528.241C1758.22 527.046 1757.58 525.894 1757.2 524.785C1756.81 523.633 1756.62 522.46 1756.62 521.265C1756.62 519.174 1757.15 517.34 1758.22 515.761C1759.29 514.14 1760.8 512.902 1762.76 512.049C1764.73 511.153 1767.01 510.705 1769.61 510.705C1772.04 510.705 1774.13 511.11 1775.88 511.921C1777.68 512.689 1779.06 513.82 1780.04 515.313C1781.07 516.764 1781.58 518.513 1781.58 520.561C1781.58 522.353 1781.13 524.017 1780.24 525.553C1779.34 527.046 1777.93 528.476 1776.01 529.841C1774.13 531.206 1771.62 532.636 1768.46 534.129C1766.11 535.281 1764.26 536.369 1762.89 537.393C1761.53 538.417 1760.55 539.441 1759.95 540.465C1759.35 541.489 1759.05 542.62 1759.05 543.857C1759.05 545.094 1759.41 546.182 1760.14 547.121C1760.91 548.06 1761.97 548.806 1763.34 549.361C1764.71 549.873 1766.31 550.129 1768.14 550.129C1770.87 550.129 1773.35 549.532 1775.56 548.337C1777.83 547.1 1779.72 545.265 1781.26 542.833C1782.8 540.401 1783.91 537.393 1784.59 533.809L1791.05 535.921C1790.16 540.23 1788.6 543.942 1786.38 547.057C1784.2 550.129 1781.52 552.497 1778.32 554.161C1775.12 555.825 1771.53 556.657 1767.56 556.657Z" fill="white"/>
<path d="M1713.78 556.657C1710.92 556.657 1708.28 556.102 1705.85 554.993C1703.46 553.883 1701.49 552.283 1699.96 550.193L1704.69 544.497C1705.93 546.203 1707.27 547.483 1708.73 548.337C1710.22 549.19 1711.84 549.617 1713.59 549.617C1718.24 549.617 1720.57 546.865 1720.57 541.361V518.193H1704.63V511.217H1728.89V540.913C1728.89 546.203 1727.58 550.15 1724.98 552.753C1722.42 555.355 1718.69 556.657 1713.78 556.657Z" fill="white"/>
<path d="M1629.65 556.017V538.289L1631.51 543.409L1612.05 511.217H1620.95L1636.57 537.137H1631.57L1647.32 511.217H1655.51L1636.05 543.409L1637.97 538.289V556.017H1629.65Z" fill="white"/>
<path d="M1556.82 556.017V511.217H1577.81C1583.18 511.217 1587.28 512.283 1590.1 514.417C1592.91 516.507 1594.32 519.323 1594.32 522.865C1594.32 525.254 1593.77 527.302 1592.66 529.009C1591.55 530.673 1590.05 531.974 1588.18 532.913C1586.34 533.809 1584.34 534.257 1582.16 534.257L1583.31 531.953C1585.83 531.953 1588.09 532.422 1590.1 533.361C1592.1 534.257 1593.68 535.579 1594.83 537.329C1596.03 539.078 1596.62 541.254 1596.62 543.857C1596.62 547.697 1595.15 550.683 1592.21 552.817C1589.26 554.95 1584.89 556.017 1579.09 556.017H1556.82ZM1565.14 549.489H1578.58C1581.69 549.489 1584.08 548.977 1585.74 547.953C1587.41 546.929 1588.24 545.286 1588.24 543.025C1588.24 540.806 1587.41 539.185 1585.74 538.161C1584.08 537.094 1581.69 536.561 1578.58 536.561H1564.5V530.097H1576.91C1579.81 530.097 1582.03 529.585 1583.57 528.561C1585.15 527.537 1585.94 526.001 1585.94 523.953C1585.94 521.862 1585.15 520.305 1583.57 519.281C1582.03 518.257 1579.81 517.745 1576.91 517.745H1565.14V549.489Z" fill="white"/>
<path d="M1484.61 556.657C1481.11 556.657 1477.76 556.166 1474.56 555.185C1471.36 554.161 1468.82 552.86 1466.94 551.281L1469.82 544.817C1471.61 546.225 1473.83 547.398 1476.48 548.337C1479.12 549.276 1481.83 549.745 1484.61 549.745C1486.95 549.745 1488.85 549.489 1490.3 548.977C1491.75 548.465 1492.82 547.782 1493.5 546.929C1494.18 546.033 1494.53 545.03 1494.53 543.921C1494.53 542.556 1494.03 541.468 1493.05 540.657C1492.07 539.804 1490.79 539.142 1489.21 538.673C1487.68 538.161 1485.95 537.692 1484.03 537.265C1482.15 536.838 1480.25 536.348 1478.33 535.793C1476.46 535.196 1474.73 534.449 1473.15 533.553C1471.61 532.614 1470.35 531.377 1469.37 529.841C1468.39 528.305 1467.9 526.342 1467.9 523.953C1467.9 521.521 1468.54 519.302 1469.82 517.297C1471.14 515.249 1473.13 513.628 1475.77 512.433C1478.46 511.196 1481.85 510.577 1485.95 510.577C1488.64 510.577 1491.3 510.918 1493.95 511.601C1496.59 512.284 1498.9 513.265 1500.86 514.545L1498.24 521.009C1496.23 519.814 1494.16 518.94 1492.03 518.385C1489.9 517.788 1487.85 517.489 1485.89 517.489C1483.58 517.489 1481.7 517.766 1480.25 518.321C1478.85 518.876 1477.8 519.601 1477.12 520.497C1476.48 521.393 1476.16 522.417 1476.16 523.569C1476.16 524.934 1476.63 526.044 1477.57 526.897C1478.55 527.708 1479.81 528.348 1481.34 528.817C1482.92 529.286 1484.67 529.756 1486.59 530.225C1488.51 530.652 1490.41 531.142 1492.29 531.697C1494.21 532.252 1495.93 532.977 1497.47 533.873C1499.05 534.769 1500.31 535.985 1501.25 537.521C1502.23 539.057 1502.72 540.998 1502.72 543.345C1502.72 545.734 1502.06 547.953 1500.73 550.001C1499.45 552.006 1497.47 553.628 1494.78 554.865C1492.09 556.06 1488.7 556.657 1484.61 556.657Z" fill="white"/>
<path d="M1426.27 556.017V538.289L1428.13 543.409L1408.67 511.217H1417.57L1433.18 537.137H1428.19L1443.94 511.217H1452.13L1432.67 543.409L1434.59 538.289V556.017H1426.27Z" fill="white"/>
<path d="M1349.6 556.017L1369.76 511.217H1377.95L1398.17 556.017H1389.47L1372.13 515.633H1375.45L1358.17 556.017H1349.6ZM1358.88 545.649L1361.12 539.121H1385.31L1387.55 545.649H1358.88Z" fill="white"/>
<path d="M1314.69 556.017V518.257H1299.84V511.217H1337.86V518.257H1323.01V556.017H1314.69Z" fill="white"/>
<path d="M1265.79 556.657C1262.29 556.657 1258.94 556.166 1255.74 555.185C1252.54 554.161 1250 552.86 1248.12 551.281L1251 544.817C1252.8 546.225 1255.01 547.398 1257.66 548.337C1260.3 549.276 1263.01 549.745 1265.79 549.745C1268.13 549.745 1270.03 549.489 1271.48 548.977C1272.93 548.465 1274 547.782 1274.68 546.929C1275.37 546.033 1275.71 545.03 1275.71 543.921C1275.71 542.556 1275.22 541.468 1274.24 540.657C1273.25 539.804 1271.97 539.142 1270.4 538.673C1268.86 538.161 1267.13 537.692 1265.21 537.265C1263.33 536.838 1261.44 536.348 1259.52 535.793C1257.64 535.196 1255.91 534.449 1254.33 533.553C1252.8 532.614 1251.54 531.377 1250.56 529.841C1249.57 528.305 1249.08 526.342 1249.08 523.953C1249.08 521.521 1249.72 519.302 1251 517.297C1252.33 515.249 1254.31 513.628 1256.96 512.433C1259.64 511.196 1263.04 510.577 1267.13 510.577C1269.82 510.577 1272.49 510.918 1275.13 511.601C1277.78 512.284 1280.08 513.265 1282.04 514.545L1279.42 521.009C1277.41 519.814 1275.34 518.94 1273.21 518.385C1271.08 517.788 1269.03 517.489 1267.07 517.489C1264.76 517.489 1262.89 517.766 1261.44 518.321C1260.03 518.876 1258.98 519.601 1258.3 520.497C1257.66 521.393 1257.34 522.417 1257.34 523.569C1257.34 524.934 1257.81 526.044 1258.75 526.897C1259.73 527.708 1260.99 528.348 1262.52 528.817C1264.1 529.286 1265.85 529.756 1267.77 530.225C1269.69 530.652 1271.59 531.142 1273.47 531.697C1275.39 532.252 1277.12 532.977 1278.65 533.873C1280.23 534.769 1281.49 535.985 1282.43 537.521C1283.41 539.057 1283.9 540.998 1283.9 543.345C1283.9 545.734 1283.24 547.953 1281.92 550.001C1280.64 552.006 1278.65 553.628 1275.96 554.865C1273.28 556.06 1269.88 556.657 1265.79 556.657Z" fill="white"/>
<path d="M1153.18 556.017V511.217H1172.76C1177.62 511.217 1181.89 512.155 1185.56 514.033C1189.23 515.91 1192.09 518.513 1194.14 521.841C1196.18 525.169 1197.21 529.094 1197.21 533.617C1197.21 538.097 1196.18 542.022 1194.14 545.393C1192.09 548.721 1189.23 551.323 1185.56 553.201C1181.89 555.078 1177.62 556.017 1172.76 556.017H1153.18ZM1161.5 548.977H1172.38C1175.75 548.977 1178.65 548.337 1181.08 547.057C1183.55 545.777 1185.45 543.985 1186.78 541.681C1188.14 539.377 1188.82 536.689 1188.82 533.617C1188.82 530.502 1188.14 527.814 1186.78 525.553C1185.45 523.249 1183.55 521.457 1181.08 520.177C1178.65 518.897 1175.75 518.257 1172.38 518.257H1161.5V548.977Z" fill="white"/>
<path d="M1103.9 529.841H1126.17V536.689H1103.9V529.841ZM1104.54 549.041H1129.82V556.017H1096.22V511.217H1128.92V518.193H1104.54V549.041Z" fill="white"/>
<path d="M1035.33 556.017V511.217H1053.76C1057.73 511.217 1061.12 511.857 1063.94 513.137C1066.79 514.417 1068.99 516.251 1070.53 518.641C1072.06 521.03 1072.83 523.867 1072.83 527.153C1072.83 530.438 1072.06 533.275 1070.53 535.665C1068.99 538.011 1066.79 539.825 1063.94 541.105C1061.12 542.342 1057.73 542.961 1053.76 542.961H1039.94L1043.65 539.185V556.017H1035.33ZM1064.64 556.017L1053.31 539.761H1062.21L1073.6 556.017H1064.64ZM1043.65 540.081L1039.94 536.113H1053.38C1057.05 536.113 1059.8 535.323 1061.63 533.745C1063.51 532.166 1064.45 529.969 1064.45 527.153C1064.45 524.294 1063.51 522.097 1061.63 520.561C1059.8 519.025 1057.05 518.257 1053.38 518.257H1039.94L1043.65 514.161V540.081Z" fill="white"/>
<path d="M990.013 556.657C983.869 556.657 979.048 554.929 975.549 551.473C972.093 548.017 970.365 543.025 970.365 536.497V511.217H978.685V536.177C978.685 540.785 979.667 544.134 981.629 546.225C983.635 548.315 986.451 549.361 990.077 549.361C993.704 549.361 996.499 548.315 998.461 546.225C1000.42 544.134 1001.41 540.785 1001.41 536.177V511.217H1009.6V536.497C1009.6 543.025 1007.85 548.017 1004.35 551.473C1000.89 554.929 996.115 556.657 990.013 556.657Z" fill="white"/>
<path d="M923.786 556.657C920.287 556.657 917.066 556.081 914.122 554.929C911.178 553.777 908.618 552.177 906.442 550.129C904.266 548.038 902.58 545.606 901.386 542.833C900.191 540.017 899.594 536.945 899.594 533.617C899.594 530.289 900.191 527.238 901.386 524.465C902.58 521.649 904.266 519.217 906.442 517.169C908.618 515.078 911.178 513.457 914.122 512.305C917.066 511.153 920.266 510.577 923.722 510.577C927.22 510.577 930.42 511.153 933.322 512.305C936.266 513.457 938.826 515.078 941.002 517.169C943.178 519.217 944.863 521.649 946.058 524.465C947.252 527.238 947.85 530.289 947.85 533.617C947.85 536.945 947.252 540.017 946.058 542.833C944.863 545.649 943.178 548.081 941.002 550.129C938.826 552.177 936.266 553.777 933.322 554.929C930.42 556.081 927.242 556.657 923.786 556.657ZM923.722 549.361C925.983 549.361 928.074 548.977 929.994 548.209C931.914 547.441 933.578 546.353 934.986 544.945C936.394 543.494 937.482 541.83 938.25 539.953C939.06 538.033 939.466 535.921 939.466 533.617C939.466 531.313 939.06 529.222 938.25 527.345C937.482 525.425 936.394 523.761 934.986 522.353C933.578 520.902 931.914 519.793 929.994 519.025C928.074 518.257 925.983 517.873 923.722 517.873C921.46 517.873 919.37 518.257 917.45 519.025C915.572 519.793 913.908 520.902 912.458 522.353C911.05 523.761 909.94 525.425 909.13 527.345C908.362 529.222 907.978 531.313 907.978 533.617C907.978 535.878 908.362 537.969 909.13 539.889C909.94 541.809 911.05 543.494 912.458 544.945C913.866 546.353 915.53 547.441 917.45 548.209C919.37 548.977 921.46 549.361 923.722 549.361Z" fill="white"/>
<path d="M856.711 556.017L837.127 511.217H846.151L863.623 551.729H858.439L876.103 511.217H884.423L864.903 556.017H856.711Z" fill="white"/>
<path d="M777.484 556.017L797.644 511.217H805.836L826.06 556.017H817.356L800.012 515.633H803.34L786.06 556.017H777.484ZM786.764 545.649L789.004 539.121H813.196L815.436 545.649H786.764Z" fill="white"/>
<path d="M731.365 556.017V511.217H739.685V548.977H763.109V556.017H731.365Z" fill="white"/>
<path d="M684.151 531.825H706.487V538.865H684.151V531.825ZM684.855 556.017H676.535V511.217H709.239V518.193H684.855V556.017Z" fill="white"/>
<path d="M578.875 556.017V511.217H585.723L613.819 545.713H610.427V511.217H618.683V556.017H611.835L583.739 521.521H587.131V556.017H578.875Z" fill="white"/>
<path d="M510.523 556.017L530.683 511.217H538.875L559.099 556.017H550.395L533.051 515.633H536.379L519.099 556.017H510.523ZM519.803 545.649L522.043 539.121H546.235L548.475 545.649H519.803Z" fill="white"/>
<path d="M467.584 529.841H489.856V536.689H467.584V529.841ZM468.224 549.041H493.504V556.017H459.904V511.217H492.608V518.193H468.224V549.041Z" fill="white"/>
<path d="M400.012 556.017V511.217H418.444C422.412 511.217 425.804 511.857 428.62 513.137C431.478 514.417 433.676 516.251 435.212 518.641C436.748 521.03 437.516 523.867 437.516 527.153C437.516 530.438 436.748 533.275 435.212 535.665C433.676 538.054 431.478 539.889 428.62 541.169C425.804 542.449 422.412 543.089 418.444 543.089H404.62L408.332 539.185V556.017H400.012ZM408.332 540.081L404.62 536.049H418.06C421.729 536.049 424.481 535.281 426.316 533.745C428.193 532.166 429.132 529.969 429.132 527.153C429.132 524.294 428.193 522.097 426.316 520.561C424.481 519.025 421.729 518.257 418.06 518.257H404.62L408.332 514.161V540.081Z" fill="white"/>
<path d="M353.047 556.657C349.549 556.657 346.327 556.081 343.383 554.929C340.439 553.777 337.879 552.177 335.703 550.129C333.527 548.038 331.842 545.606 330.647 542.833C329.453 540.017 328.855 536.945 328.855 533.617C328.855 530.289 329.453 527.238 330.647 524.465C331.842 521.649 333.527 519.217 335.703 517.169C337.879 515.078 340.439 513.457 343.383 512.305C346.327 511.153 349.527 510.577 352.983 510.577C356.482 510.577 359.682 511.153 362.583 512.305C365.527 513.457 368.087 515.078 370.263 517.169C372.439 519.217 374.125 521.649 375.319 524.465C376.514 527.238 377.111 530.289 377.111 533.617C377.111 536.945 376.514 540.017 375.319 542.833C374.125 545.649 372.439 548.081 370.263 550.129C368.087 552.177 365.527 553.777 362.583 554.929C359.682 556.081 356.503 556.657 353.047 556.657ZM352.983 549.361C355.245 549.361 357.335 548.977 359.255 548.209C361.175 547.441 362.839 546.353 364.247 544.945C365.655 543.494 366.743 541.83 367.511 539.953C368.322 538.033 368.727 535.921 368.727 533.617C368.727 531.313 368.322 529.222 367.511 527.345C366.743 525.425 365.655 523.761 364.247 522.353C362.839 520.902 361.175 519.793 359.255 519.025C357.335 518.257 355.245 517.873 352.983 517.873C350.722 517.873 348.631 518.257 346.711 519.025C344.834 519.793 343.17 520.902 341.719 522.353C340.311 523.761 339.202 525.425 338.391 527.345C337.623 529.222 337.239 531.313 337.239 533.617C337.239 535.878 337.623 537.969 338.391 539.889C339.202 541.809 340.311 543.494 341.719 544.945C343.127 546.353 344.791 547.441 346.711 548.209C348.631 548.977 350.722 549.361 352.983 549.361Z" fill="white"/>
<path d="M271.164 556.017V511.217H289.596C293.564 511.217 296.956 511.857 299.772 513.137C302.631 514.417 304.828 516.251 306.364 518.641C307.9 521.03 308.668 523.867 308.668 527.153C308.668 530.438 307.9 533.275 306.364 535.665C304.828 538.011 302.631 539.825 299.772 541.105C296.956 542.342 293.564 542.961 289.596 542.961H275.772L279.484 539.185V556.017H271.164ZM300.476 556.017L289.148 539.761H298.044L309.436 556.017H300.476ZM279.484 540.081L275.772 536.113H289.212C292.881 536.113 295.633 535.323 297.468 533.745C299.345 532.166 300.284 529.969 300.284 527.153C300.284 524.294 299.345 522.097 297.468 520.561C295.633 519.025 292.881 518.257 289.212 518.257H275.772L279.484 514.161V540.081Z" fill="white"/>
<path d="M225.847 556.657C219.703 556.657 214.882 554.929 211.383 551.473C207.927 548.017 206.199 543.025 206.199 536.497V511.217H214.519V536.177C214.519 540.785 215.501 544.134 217.463 546.225C219.469 548.315 222.285 549.361 225.911 549.361C229.538 549.361 232.333 548.315 234.295 546.225C236.258 544.134 237.239 540.785 237.239 536.177V511.217H245.431V536.497C245.431 543.025 243.682 548.017 240.183 551.473C236.727 554.929 231.949 556.657 225.847 556.657Z" fill="white"/>
<path d="M157.309 529.841H179.581V536.689H157.309V529.841ZM157.949 549.041H183.229V556.017H149.629V511.217H182.333V518.193H157.949V549.041Z" fill="white"/>
<path d="M798.4 320.393C803.371 320.393 807.4 324.422 807.4 329.393V375.593H867.6C872.571 375.593 876.6 379.622 876.6 384.593C876.6 389.563 872.571 393.593 867.6 393.593H798.4C793.43 393.593 789.4 389.563 789.4 384.593V329.393C789.4 324.422 793.43 320.393 798.4 320.393Z" fill="white"/>
<path d="M1000 68.6758C1001.74 68.6268 1003.5 69.0364 1005.07 69.9543L1204.27 186.729C1205.19 187.269 1205.97 187.942 1206.59 188.704C1209.01 190.318 1210.6 193.069 1210.6 196.192V384.592C1210.6 389.563 1206.57 393.592 1201.6 393.592H1008.8C1003.83 393.592 999.8 389.563 999.8 384.592C999.801 379.622 1003.83 375.592 1008.8 375.592H1192.6V200.706L999.999 87.8008L807.4 200.706V250.192C807.4 255.163 803.371 259.192 798.4 259.192C793.43 259.192 789.4 255.163 789.4 250.192V196.192C789.401 193.069 790.991 190.318 793.407 188.704C794.035 187.941 794.813 187.269 795.734 186.729L994.934 69.9543C996.5 69.0364 998.26 68.6268 1000 68.6758Z" fill="white"/>
</svg>
