<svg width="671" height="648" viewBox="0 0 671 648" fill="none" xmlns="http://www.w3.org/2000/svg">
<rect width="671" height="648" fill="white"/>
<path d="M292.299 227.774C311.576 227.774 330.211 231.349 344.01 237.626C350.814 240.721 357.56 244.979 362.32 250.818C367.425 257.082 370.608 265.854 367.586 275.524C364.21 286.328 355.079 294.155 346.851 299.595C338.055 305.411 327.241 310.456 316.298 314.718C314.535 315.404 312.753 316.074 310.96 316.73C319.959 321.168 328.929 327.033 336.392 334.709C340.989 329.282 345.272 324.271 349.332 319.645C357.241 310.632 364.415 302.978 370.735 297.944C373.881 295.439 377.662 292.883 381.925 291.375C386.312 289.823 392.144 289.098 398.066 291.725L398.641 291.989L400.244 292.749C416.801 300.484 432.826 304.617 448.768 303.871C465.027 303.11 482.469 297.217 501.456 282.674C508.033 277.637 517.448 278.884 522.485 285.461C527.523 292.038 526.275 301.453 519.698 306.49C496.491 324.266 473.292 332.755 450.172 333.838C428.871 334.835 408.736 329.494 389.929 321.021C389.771 321.141 389.602 321.27 389.425 321.411C385.429 324.593 379.819 330.386 371.881 339.433C366.536 345.522 360.107 353.135 352.669 361.945C368.043 405.462 355.826 455.917 339.029 500.309C329.485 525.531 314.503 550.044 298.58 570.427C282.76 590.677 265.259 607.808 250.096 617.645C240.891 623.616 231.221 627.242 221.601 627.251C211.568 627.26 202.677 623.292 196.185 616.181C183.986 602.817 182.653 581.677 187.61 561.688C192.561 541.726 205.962 512.297 222.606 482.887C239.385 453.239 260.295 422.133 281.128 398.886C294.886 383.532 306.606 369.907 316.86 357.825C310.551 350.323 300.708 344.276 288.943 339.868C273.461 334.067 258.129 332.425 251.766 332.85C243.858 333.377 236.905 327.661 235.891 319.802C234.878 311.942 240.153 304.649 247.935 303.152C262.592 300.334 285.539 294.501 305.411 286.763C315.38 282.88 324.007 278.735 330.306 274.57C333.437 272.499 335.671 270.634 337.144 269.061C337.34 268.852 337.515 268.654 337.674 268.468C336.467 267.515 334.524 266.269 331.587 264.933C322.563 260.827 308.366 257.774 292.299 257.774C252.099 257.774 220.892 280.644 178.266 311.479C144.297 336.053 94.7885 365.095 48.5712 379.885C40.6812 382.409 32.2386 378.06 29.7138 370.17C27.1889 362.28 31.5385 353.836 39.4286 351.312C81.5736 337.825 128.203 310.668 160.683 287.173C201.118 257.922 240.533 227.774 292.299 227.774ZM328.702 390.135C320.931 399.167 312.507 408.822 303.47 418.906C284.539 440.032 264.836 469.178 248.716 497.662C232.461 526.384 220.68 552.97 216.727 568.908C212.782 584.818 216.066 593.462 218.342 595.955C219.088 596.773 219.9 597.252 221.575 597.251C223.664 597.249 227.71 596.407 233.768 592.477C245.173 585.078 260.314 570.679 274.939 551.958C289.462 533.369 302.731 511.468 310.971 489.691C324.614 453.635 332.652 419.299 328.702 390.135Z" fill="black"/>
<path d="M55.3008 401.039C63.5849 401.039 70.3005 407.755 70.3008 416.039V465.762H186.812C195.097 465.762 201.812 472.478 201.812 480.762C201.813 489.046 195.097 495.762 186.812 495.762H58.3594C57.8431 495.762 57.3329 495.735 56.8301 495.685C56.3272 495.735 55.8171 495.763 55.3008 495.763C47.0167 495.763 40.301 489.047 40.3008 480.763V416.039C40.301 407.755 47.0167 401.039 55.3008 401.039Z" fill="black"/>
<path d="M315.266 73.8608C318.166 73.7791 321.1 74.4626 323.71 75.9927L580.616 226.596C586.272 229.912 588.712 236.207 587.172 242.083V480.762C587.172 484.516 585.793 487.948 583.514 490.579C583.357 490.76 583.196 490.938 583.03 491.112C582.947 491.199 582.863 491.285 582.778 491.37C582.524 491.624 582.26 491.869 581.988 492.105C581.625 492.419 581.248 492.717 580.855 492.996C580.659 493.135 580.46 493.27 580.257 493.4C579.952 493.595 579.64 493.779 579.321 493.953C579.109 494.068 578.893 494.178 578.675 494.284C577.801 494.705 576.879 495.044 575.921 495.291C575.681 495.352 575.439 495.408 575.195 495.458C574.829 495.533 574.458 495.594 574.082 495.642C573.832 495.674 573.58 495.7 573.326 495.719C572.945 495.748 572.56 495.762 572.172 495.762H380.547C372.263 495.762 365.547 489.046 365.547 480.762C365.547 472.478 372.263 465.762 380.547 465.762H557.172V247.547L315.265 105.738L70.3008 249.34V303.119C70.3007 311.403 63.585 318.119 55.3008 318.119C47.0165 318.119 40.3008 311.403 40.3008 303.119V240.677C40.301 234.434 44.1154 229.081 49.541 226.823C49.6641 226.746 49.7887 226.67 49.915 226.596L306.821 75.9927C309.431 74.4626 312.365 73.7791 315.266 73.8608Z" fill="black"/>
</svg>
